<svg width="40" height="40" viewBox="0 0 40 40" fill="none" xmlns="http://www.w3.org/2000/svg">
<g clip-path="url(#clip0_80_2185)">
<mask id="mask0_80_2185" style="mask-type:luminance" maskUnits="userSpaceOnUse" x="0" y="-35" width="40" height="75">
<path d="M40 0H0V40H40V0Z" fill="white"/>
<path d="M27.3553 -34.1331L25.4891 -33.3866C24.123 -32.8402 22.5781 -32.7649 21.112 -32.7649C20.6189 -32.7649 20.1271 -32.7743 19.6064 -32.7843C19.0869 -32.7944 18.5498 -32.8047 18.0124 -32.8047H14.0555C10.9427 -32.8047 8.28014 -30.4787 7.86217 -27.3941L7.78983 -26.8604C7.30201 -26.5904 6.85165 -26.2576 6.45022 -25.8707C5.19593 -24.6616 4.50515 -23.0366 4.50515 -21.2949C4.50515 -19.0684 5.67593 -17.0443 7.49796 -15.9037C7.64061 -14.6614 8.12756 -13.5225 8.86069 -12.5845C5.73999 -12.0427 3.35938 -9.315 3.35938 -6.04173V0.677002H36.6405V-6.04173C36.6405 -9.315 34.2599 -12.0427 31.1393 -12.5845C31.8723 -13.5225 32.3593 -14.6614 32.502 -15.9037C34.324 -17.0443 35.4947 -19.0684 35.4947 -21.2949C35.4947 -23.9521 33.8445 -26.2874 31.4384 -27.2202L28.3775 -32.4024L27.3553 -34.1331ZM26.3595 -31.2105L29.8884 -25.2357C31.7438 -24.8839 33.151 -23.2504 33.151 -21.2949C33.151 -19.4507 31.8999 -17.8932 30.2018 -17.4265V-16.6667C30.2018 -14.2974 28.2742 -12.3698 25.9049 -12.3698H25.3384V-10.3386H29.9999C32.3692 -10.3386 34.2968 -8.41102 34.2968 -6.04173V-1.66674H5.70312V-6.04173C5.70312 -8.41102 7.63069 -10.3386 9.99998 -10.3386H14.6615V-12.3698H14.095C11.7257 -12.3698 9.7981 -14.2974 9.7981 -16.6667V-17.4265C8.10006 -17.8932 6.84889 -19.4507 6.84889 -21.2949C6.84889 -22.3943 7.28491 -23.42 8.07663 -24.183C8.60256 -24.6899 9.23904 -25.0356 9.92974 -25.1986L10.1847 -27.0794C10.4459 -29.0072 12.1101 -30.461 14.0555 -30.461H18.0124C19.0424 -30.461 20.0807 -30.4211 21.112 -30.4211C22.9123 -30.4211 24.6901 -30.5428 26.3595 -31.2105Z" fill="black"/>
<path d="M34.8308 23.9975C34.8308 32.1882 28.1909 38.8281 20.0001 38.8281C11.8295 38.8282 5.23064 32.2807 5.16986 24.1104C5.14704 21.0511 6.05064 18.2042 7.6168 15.8334C7.96547 15.3056 10.0002 12.5001 10.0002 12.5001L11.3726 13.8726C11.7194 14.2194 12.1465 14.4752 12.616 14.6174C13.0855 14.7595 13.5828 14.7835 14.0637 14.6873C15.4619 14.4077 16.4665 13.177 16.4587 11.7512C16.4506 10.2813 16.6506 8.3658 17.5001 6.66682C19.2825 3.1019 22.5001 1.66683 22.5001 1.66683C22.5001 1.66683 24.0427 7.50002 30.8334 15.0001C32.9414 17.3283 34.8308 20.6142 34.8308 23.9975Z" fill="white"/>
<path d="M24.6196 27.8357C24.6196 26.8057 24.2814 26.4982 23.9432 26.4982C23.605 26.4982 23.2668 26.8057 23.2668 27.8357C23.2668 28.8657 23.605 29.1732 23.9432 29.1732C24.2814 29.1732 24.6196 28.8657 24.6196 27.8357ZM21.0837 27.8357C21.0837 25.9294 22.3136 24.8379 23.9432 24.8379C25.5727 24.8379 26.8025 25.9294 26.8025 27.8357C26.8025 29.7573 25.5727 30.8335 23.9432 30.8335C22.3136 30.8335 21.0837 29.7573 21.0837 27.8357ZM16.7331 22.7625C16.7331 21.7325 16.3949 21.4251 16.0567 21.4251C15.7185 21.4251 15.3803 21.7325 15.3803 22.7625C15.3803 23.7925 15.7185 24.1 16.0567 24.1C16.3949 24.1 16.7331 23.7925 16.7331 22.7625ZM22.3751 19.9185H24.9732L17.6248 30.6797H15.0267L22.3751 19.9185ZM13.1973 22.7625C13.1973 20.8563 14.4272 19.7648 16.0567 19.7648C17.6862 19.7648 18.9162 20.8563 18.9162 22.7625C18.9162 24.6842 17.6862 25.7603 16.0567 25.7603C14.4272 25.7603 13.1973 24.6842 13.1973 22.7625Z" fill="black"/>
<path d="M25.5566 40H25.9951L25.8791 39.71L25.5566 40Z" fill="white"/>
<path d="M23.8472 39.9613L23.8042 40H27.2572L26.3434 37.7161L23.8472 39.9613Z" fill="black"/>
</mask>
<g mask="url(#mask0_80_2185)">
<path d="M34.8305 23.9977C34.8305 32.1885 28.1906 38.8284 19.9999 38.8284C11.8293 38.8284 5.23039 32.281 5.16961 24.1106C5.1468 21.0513 6.05039 18.2044 7.61656 15.8337C7.96523 15.3059 9.99991 12.5003 9.99991 12.5003L11.3723 13.8728C11.7192 14.2196 12.1463 14.4755 12.6158 14.6176C13.0852 14.7597 13.5825 14.7838 14.0635 14.6876C15.4617 14.408 16.4663 13.1773 16.4584 11.7514C16.4504 10.2815 16.6504 8.36604 17.4999 6.66706C19.2823 3.10215 22.4999 1.66707 22.4999 1.66707C22.4999 1.66707 24.0424 7.50026 30.8331 15.0003C32.9412 17.3285 34.8305 20.6144 34.8305 23.9977Z" fill="#42454A"/>
</g>
</g>
<defs>
<clipPath id="clip0_80_2185">
<rect width="40" height="40" fill="white"/>
</clipPath>
</defs>
</svg>
