<svg width="24" height="24" viewBox="0 0 24 24" fill="none" xmlns="http://www.w3.org/2000/svg">
<g clip-path="url(#clip0_111_7419)">
<path d="M24 12C24 18.6274 18.6274 24 12 24C8.50628 24 5.36131 22.5071 3.16849 20.1242C2.59249 19.4988 2.08261 18.8116 1.64865 18.0744C0.60098 16.2926 0 14.2163 0 12C0 5.37257 5.37257 0 12 0C14.2168 0 16.2931 0.600979 18.0744 1.64914C18.8116 2.08261 19.4983 2.59249 20.1238 3.16898C22.5066 5.36082 24 8.50628 24 12Z" fill="#F0CD00"/>
<path d="M24.0002 12C24.0002 18.478 18.8676 23.757 12.4469 23.9916C6.02613 23.757 0.893555 18.478 0.893555 12C0.893555 5.52193 6.02613 0.242913 12.4469 0.00830078C18.8676 0.242913 24.0002 5.52193 24.0002 12Z" fill="#FFDE50"/>
<path d="M20.1235 3.16901L3.16827 20.1243C2.59227 19.4988 2.0824 18.8116 1.64844 18.0745L18.0742 1.64917C18.8114 2.08264 19.4981 2.59252 20.1235 3.16901Z" fill="#FFEA94"/>
<path d="M23.1723 7.61291L7.61242 23.1727C6.51087 22.7398 5.48867 22.1486 4.57422 21.4271L21.4271 4.57422C22.1486 5.48867 22.7398 6.51087 23.1723 7.61291Z" fill="#FFEA94"/>
<path d="M21.3248 12C21.3248 17.1497 17.1497 21.3248 12 21.3248C10.2064 21.3248 8.53129 20.8183 7.10942 19.9406C6.48982 19.5586 5.91872 19.1055 5.40639 18.5932C5.02974 18.217 4.68493 17.808 4.37684 17.3716C3.95268 16.7706 3.59758 16.1173 3.32378 15.4232C2.91823 14.3971 2.68999 13.2813 2.67627 12.1146C2.67529 12.0764 2.67529 12.0382 2.67529 12C2.67529 6.85031 6.84982 2.67529 12 2.67529C12.0382 2.67529 12.0769 2.67529 12.1151 2.67627C13.2818 2.68999 14.3971 2.91872 15.4232 3.32378C16.1173 3.59807 16.7706 3.95268 17.3716 4.37684C17.808 4.68542 18.2165 5.02974 18.5932 5.40639C19.1055 5.91823 19.5586 6.48982 19.9406 7.10942C20.8183 8.53129 21.3248 10.2064 21.3248 12Z" fill="#FAA300"/>
<path d="M18.5932 5.40639L5.40639 18.5932C5.02974 18.217 4.68493 17.808 4.37684 17.3716C3.95268 16.7706 3.59758 16.1173 3.32378 15.4232C2.91823 14.3971 2.68999 13.2813 2.67627 12.1146C2.67529 12.0764 2.67529 12.0382 2.67529 12C2.67529 6.85031 6.84982 2.67529 12 2.67529C12.0382 2.67529 12.0769 2.67529 12.1151 2.67627C13.2818 2.68999 14.3971 2.91872 15.4232 3.32378C16.1173 3.59807 16.7706 3.95268 17.3716 4.37684C17.808 4.68542 18.2165 5.02974 18.5932 5.40639Z" fill="#FFBD00"/>
<path d="M21.3244 12C21.3244 17.1497 17.1494 21.3248 11.9997 21.3248C11.8229 21.3248 11.6475 21.3199 11.4731 21.3101C16.378 21.0373 20.2709 16.9729 20.2709 12C20.2709 7.02713 16.378 2.9628 11.4731 2.68999C11.6475 2.68019 11.8229 2.67529 11.9997 2.67529C17.1494 2.67529 21.3244 6.85031 21.3244 12Z" fill="#F68E00"/>
<path d="M12.4804 14.0111C14.9212 14.0111 16.9068 12.0254 16.9068 9.58478C16.9068 7.14413 14.9211 5.15845 12.4804 5.15845H7.59758C7.05655 5.15845 6.61798 5.59701 6.61798 6.13804V12.0519H5.95078C5.40975 12.0519 4.97119 12.4905 4.97119 13.0315C4.97119 13.5726 5.40975 14.0111 5.95078 14.0111H6.61798V15.1378H5.95078C5.40975 15.1378 4.97119 15.5764 4.97119 16.1174C4.97119 16.6584 5.40975 17.097 5.95078 17.097H6.61798V18.098C6.61798 18.6391 7.05655 19.0776 7.59758 19.0776C8.1386 19.0776 8.57717 18.6391 8.57717 18.098V17.097H12.0035C12.5446 17.097 12.9831 16.6584 12.9831 16.1174C12.9831 15.5764 12.5446 15.1378 12.0035 15.1378H8.57717V14.0111H12.4804ZM8.57717 7.11763H12.4804C13.8409 7.11763 14.9476 8.22437 14.9476 9.58478C14.9476 10.9451 13.8409 12.0519 12.4804 12.0519H8.57717V7.11763Z" fill="#F68E00"/>
<path d="M13.7051 14.0111C16.1458 14.0111 18.1314 12.0254 18.1314 9.58478C18.1314 7.14413 16.1457 5.15845 13.7051 5.15845H8.82218C8.28116 5.15845 7.84259 5.59701 7.84259 6.13804V12.0519H7.17539C6.63436 12.0519 6.1958 12.4905 6.1958 13.0315C6.1958 13.5726 6.63436 14.0111 7.17539 14.0111H7.84259V15.1378H7.17539C6.63436 15.1378 6.1958 15.5764 6.1958 16.1174C6.1958 16.6584 6.63436 17.097 7.17539 17.097H7.84259V18.098C7.84259 18.6391 8.28116 19.0776 8.82218 19.0776C9.36321 19.0776 9.80178 18.6391 9.80178 18.098V17.097H13.2281C13.7692 17.097 14.2077 16.6584 14.2077 16.1174C14.2077 15.5764 13.7692 15.1378 13.2281 15.1378H9.80178V14.0111H13.7051ZM9.80178 7.11763H13.7051C15.0655 7.11763 16.1722 8.22437 16.1722 9.58478C16.1722 10.9451 15.0655 12.0519 13.7051 12.0519H9.80178V7.11763Z" fill="#FFEA94"/>
</g>
<defs>
<clipPath id="clip0_111_7419">
<rect width="24" height="24" fill="white"/>
</clipPath>
</defs>
</svg>
