<svg width="40" height="40" viewBox="0 0 40 40" fill="none" xmlns="http://www.w3.org/2000/svg">
<path d="M17.504 17.3792C17.504 16.233 13.8094 15.304 9.252 15.304C4.6946 15.304 1 16.233 1 17.3792V32.765C1 33.9112 4.6946 34.8403 9.252 34.8403C13.8094 34.8403 17.504 33.9112 17.504 32.765V17.3792Z" fill="#3D4045"/>
<path d="M9.31029 18.6438C13.6419 18.6438 17.1533 17.8962 17.1533 16.9739C17.1533 16.0516 13.6419 15.304 9.31029 15.304C4.97872 15.304 1.46729 16.0516 1.46729 16.9739C1.46729 17.8962 4.97872 18.6438 9.31029 18.6438Z" fill="#42454A"/>
<path d="M17.5041 17.011V32.7646C17.5041 33.623 15.3041 34.5614 11.4351 34.7666C11.9479 34.6057 14.2417 33.9469 13.7341 32.5055C12.9277 30.2165 12.1109 29.0141 11.9625 26.648C11.8163 24.3164 12.0311 21.5169 12.3189 19.1924C13.1327 18.9489 13.4099 18.5243 13.4141 17.7197C14.4739 17.7463 16.4997 17.7963 17.5041 17.011Z" fill="#36393E"/>
<path d="M9.25204 34.9657C5.13544 34.9657 0.877441 34.1425 0.877441 32.7649C0.877441 32.7316 0.890337 32.6997 0.913292 32.6762C0.936246 32.6526 0.967379 32.6394 0.999841 32.6394C1.0323 32.6394 1.06344 32.6526 1.08639 32.6762C1.10935 32.6997 1.12224 32.7316 1.12224 32.7649C1.12224 33.7066 4.38884 34.7148 9.25184 34.7148C14.1148 34.7148 17.3812 33.7066 17.3812 32.7649C17.3812 32.7316 17.3941 32.6997 17.4171 32.6762C17.44 32.6526 17.4712 32.6394 17.5036 32.6394C17.5361 32.6394 17.5672 32.6526 17.5902 32.6762C17.6131 32.6997 17.626 32.7316 17.626 32.7649C17.6264 34.1427 13.3686 34.9657 9.25204 34.9657Z" fill="#26292E"/>
<path d="M9.25204 19.5798C5.13544 19.5798 0.877441 18.7565 0.877441 17.3791C0.877441 16.0017 5.13544 15.1785 9.25204 15.1785C13.3686 15.1785 17.6264 16.0017 17.6264 17.3791C17.6264 18.7565 13.3686 19.5798 9.25204 19.5798ZM9.25204 15.4294C4.38924 15.4294 1.12244 16.4374 1.12244 17.3791C1.12244 18.3209 4.38904 19.3289 9.25204 19.3289C14.115 19.3289 17.3814 18.3209 17.3814 17.3791C17.3814 16.4374 14.115 15.4294 9.25204 15.4294ZM9.25204 32.4015C5.13544 32.4015 0.877441 31.5783 0.877441 30.2007C0.877441 30.1674 0.890337 30.1355 0.913292 30.1119C0.936246 30.0884 0.967379 30.0752 0.999841 30.0752C1.0323 30.0752 1.06344 30.0884 1.08639 30.1119C1.10935 30.1355 1.12224 30.1674 1.12224 30.2007C1.12224 31.1424 4.38884 32.1506 9.25184 32.1506C14.1148 32.1506 17.3812 31.1424 17.3812 30.2007C17.3812 30.1674 17.3941 30.1355 17.4171 30.1119C17.44 30.0884 17.4712 30.0752 17.5036 30.0752C17.5361 30.0752 17.5672 30.0884 17.5902 30.1119C17.6131 30.1355 17.626 30.1674 17.626 30.2007C17.6264 31.5783 13.3686 32.4015 9.25204 32.4015ZM9.25204 29.837C5.13544 29.837 0.877441 29.0137 0.877441 27.6363C0.877441 27.603 0.890337 27.5711 0.913292 27.5476C0.936246 27.5241 0.967379 27.5109 0.999841 27.5109C1.0323 27.5109 1.06344 27.5241 1.08639 27.5476C1.10935 27.5711 1.12224 27.603 1.12224 27.6363C1.12224 28.5779 4.38884 29.5861 9.25184 29.5861C14.1148 29.5861 17.3812 28.5779 17.3812 27.6363C17.3812 27.603 17.3941 27.5711 17.4171 27.5476C17.44 27.5241 17.4712 27.5109 17.5036 27.5109C17.5361 27.5109 17.5672 27.5241 17.5902 27.5476C17.6131 27.5711 17.626 27.603 17.626 27.6363C17.6264 29.0137 13.3686 29.837 9.25204 29.837ZM9.25204 27.2726C5.13544 27.2726 0.877441 26.4494 0.877441 25.072C0.877441 25.0387 0.890337 25.0068 0.913292 24.9833C0.936246 24.9597 0.967379 24.9465 0.999841 24.9465C1.0323 24.9465 1.06344 24.9597 1.08639 24.9833C1.10935 25.0068 1.12224 25.0387 1.12224 25.072C1.12224 26.0135 4.38884 27.0217 9.25184 27.0217C14.1148 27.0217 17.3812 26.0135 17.3812 25.072C17.3812 25.0387 17.3941 25.0068 17.4171 24.9833C17.44 24.9597 17.4712 24.9465 17.5036 24.9465C17.5361 24.9465 17.5672 24.9597 17.5902 24.9833C17.6131 25.0068 17.626 25.0387 17.626 25.072C17.6264 26.4494 13.3686 27.2726 9.25204 27.2726ZM9.25204 24.7083C5.13544 24.7083 0.877441 23.885 0.877441 22.5076C0.877441 22.4744 0.890337 22.4424 0.913292 22.4189C0.936246 22.3954 0.967379 22.3822 0.999841 22.3822C1.0323 22.3822 1.06344 22.3954 1.08639 22.4189C1.10935 22.4424 1.12224 22.4744 1.12224 22.5076C1.12224 23.4492 4.38884 24.4574 9.25184 24.4574C14.1148 24.4574 17.3812 23.4492 17.3812 22.5076C17.3812 22.4744 17.3941 22.4424 17.4171 22.4189C17.44 22.3954 17.4712 22.3822 17.5036 22.3822C17.5361 22.3822 17.5672 22.3954 17.5902 22.4189C17.6131 22.4424 17.626 22.4744 17.626 22.5076C17.6264 23.8852 13.3686 24.7083 9.25204 24.7083ZM9.25204 22.144C5.13544 22.144 0.877441 21.3207 0.877441 19.9433C0.877441 19.91 0.890337 19.8781 0.913292 19.8546C0.936246 19.831 0.967379 19.8178 0.999841 19.8178C1.0323 19.8178 1.06344 19.831 1.08639 19.8546C1.10935 19.8781 1.12224 19.91 1.12224 19.9433C1.12224 20.8848 4.38884 21.893 9.25184 21.893C14.1148 21.893 17.3812 20.8848 17.3812 19.9433C17.3812 19.91 17.3941 19.8781 17.4171 19.8546C17.44 19.831 17.4712 19.8178 17.5036 19.8178C17.5361 19.8178 17.5672 19.831 17.5902 19.8546C17.6131 19.8781 17.626 19.91 17.626 19.9433C17.6264 21.3209 13.3686 22.144 9.25204 22.144Z" fill="#26292E"/>
<path d="M9.25204 34.9657C5.13544 34.9657 0.877441 34.1424 0.877441 32.7648V17.3791C0.877441 16.0015 5.13544 15.1785 9.25204 15.1785C13.3686 15.1785 17.6264 16.0017 17.6264 17.3791V32.7648C17.6264 34.1426 13.3686 34.9657 9.25204 34.9657ZM9.25204 15.4294C4.38924 15.4294 1.12244 16.4374 1.12244 17.3791V32.7648C1.12244 33.7066 4.38904 34.7148 9.25204 34.7148C14.115 34.7148 17.3814 33.7066 17.3814 32.7648V17.3791C17.3816 16.4376 14.115 15.4294 9.25204 15.4294Z" fill="#26292E"/>
<path d="M1.26597 12.854C0.995371 13.9661 4.36097 15.7836 8.78297 16.9138C13.205 18.0439 17.0092 18.0585 17.2796 16.9464L17.8886 14.4427C18.1592 13.3306 14.7936 11.513 10.3716 10.3829C5.94957 9.25272 2.14537 9.23816 1.87497 10.3503L1.26597 12.854Z" fill="#3D4045"/>
<path d="M17.2887 16.9074L17.8887 14.4427C18.0283 13.8679 17.0975 13.0062 15.4925 12.2129C15.1201 14.3252 14.4683 14.8793 13.7635 15.1936C13.2013 15.5972 12.9197 16.8861 13.0079 17.6833C13.0079 17.6833 14.0735 17.8928 15.3227 17.8297C16.1427 17.7885 17.1803 17.4168 17.2887 16.9074Z" fill="#42454A"/>
<path d="M2.23335 9.92287C1.93115 10.4848 5.13995 12.3741 9.20795 13.4136C13.2759 14.4532 16.7489 14.576 16.9649 13.6877C17.1809 12.7994 14.0583 11.2365 9.99035 10.197C5.92235 9.1574 2.43935 9.53972 2.23335 9.92287Z" fill="#36393E"/>
<path d="M15.246 15.3929H15.1968C13.5824 15.3868 11.5104 15.0809 9.36261 14.5319C7.21461 13.9832 5.24501 13.2558 3.81681 12.4846C2.77361 11.9213 1.56941 11.0884 1.75641 10.32C1.94321 9.55168 3.38381 9.40183 4.56721 9.40039C6.18161 9.40654 8.25361 9.7124 10.4014 10.2614C14.3956 11.2821 18.3328 13.1367 18.0076 14.4733C17.8234 15.2308 16.4158 15.3929 15.246 15.3929ZM4.51981 9.65131C3.04801 9.65131 2.10521 9.92314 1.99381 10.3807C1.88141 10.8432 2.60561 11.5467 3.93101 12.2626C5.34241 13.0248 7.29241 13.7443 9.42181 14.2886C11.5512 14.8327 13.6026 15.1359 15.1978 15.142C16.692 15.1486 17.6576 14.8751 17.77 14.4126C17.9922 13.499 15.0606 11.7107 10.342 10.5049C8.21261 9.96086 6.16121 9.65767 4.56601 9.65152L4.51981 9.65131Z" fill="#26292E"/>
<path d="M14.6373 17.8966H14.5879C12.9737 17.8905 10.9015 17.5848 8.75367 17.0356C4.75927 16.0149 0.822067 14.1603 1.14727 12.8237L1.75627 10.32C1.94307 9.55168 3.38727 9.4006 4.56707 9.40039C6.18147 9.40654 8.25347 9.7124 10.4013 10.2614C14.3955 11.2821 18.3327 13.1367 18.0075 14.4733L17.3985 16.977C17.2143 17.7345 15.8069 17.8966 14.6373 17.8966ZM1.38487 12.8844C1.16267 13.798 4.09427 15.5863 8.81287 16.7921C10.9423 17.3361 12.9937 17.6393 14.5889 17.6455C16.0919 17.6455 17.0487 17.3788 17.1611 16.9161L17.7701 14.4124C17.9923 13.4988 15.0607 11.7105 10.3421 10.5047C8.21267 9.96066 6.16127 9.65746 4.56607 9.65131H4.51987C3.04807 9.65131 2.10527 9.92314 1.99387 10.3807L1.38487 12.8844Z" fill="#26292E"/>
<path d="M1.67623 8.76393C1.87323 9.89204 5.66963 10.1397 10.1558 9.31702C14.642 8.49435 18.1192 6.91278 17.9222 5.78446L17.4788 3.24451C17.2818 2.11639 13.4854 1.86875 8.99923 2.69142C4.51303 3.51408 1.03583 5.09566 1.23283 6.22377L1.67623 8.76393Z" fill="#3D4045"/>
<path d="M4.85429 7.38238C2.78969 7.38238 1.25109 7.039 1.11269 6.24606C0.875886 4.88978 4.92569 3.31087 8.97789 2.56775C13.0301 1.82462 17.3627 1.86645 17.5995 3.22231C17.8361 4.57839 13.7863 6.1573 9.73409 6.90042C8.05169 7.20895 6.32029 7.38238 4.85429 7.38238ZM13.8445 2.32708C12.5167 2.32708 10.8737 2.47509 9.02109 2.81477C4.23409 3.69258 1.19189 5.27478 1.35349 6.20158C1.51549 7.12859 4.90429 7.53121 9.69109 6.6534C14.4781 5.77559 17.5203 4.1934 17.3587 3.26659C17.2593 2.69854 15.9473 2.32708 13.8445 2.32708Z" fill="#26292E"/>
<path d="M5.29718 9.92233C3.23258 9.92233 1.69398 9.57896 1.55558 8.78602L1.11218 6.24607C0.875582 4.88979 4.92538 3.31087 8.97758 2.56775C13.0298 1.82462 17.3624 1.86645 17.5992 3.22232L18.0426 5.76226C18.2792 7.11834 14.2294 8.69725 10.1772 9.44038C8.49478 9.74911 6.76318 9.92233 5.29718 9.92233ZM1.79658 8.74174C1.95858 9.66875 5.34738 10.0714 10.1342 9.19355C14.9212 8.31574 17.9634 6.73355 17.8018 5.80675L17.3584 3.2668C17.1966 2.33999 13.8078 1.93737 9.02078 2.81498C4.23378 3.69279 1.19158 5.27498 1.35318 6.20179L1.79658 8.74174Z" fill="#26292E"/>
<path d="M26.0886 36.7945C33.2194 36.7945 39 30.8694 39 23.5604C39 16.2513 33.2194 10.3262 26.0886 10.3262C18.9579 10.3262 13.1772 16.2513 13.1772 23.5604C13.1772 30.8694 18.9579 36.7945 26.0886 36.7945Z" fill="#3D4045"/>
<path d="M26.0886 33.2982C31.3353 33.2982 35.5886 28.9386 35.5886 23.5607C35.5886 18.1829 31.3353 13.8232 26.0886 13.8232C20.8419 13.8232 16.5886 18.1829 16.5886 23.5607C16.5886 28.9386 20.8419 33.2982 26.0886 33.2982Z" fill="#36393E"/>
<path d="M26.0883 33.5367C20.7217 33.5367 16.3555 29.0613 16.3555 23.5603C16.3555 18.0596 20.7217 13.5842 26.0883 13.5842C31.4551 13.5842 35.8213 18.0594 35.8213 23.5603C35.8213 29.0613 31.4551 33.5367 26.0883 33.5367ZM26.0883 14.0861C20.9917 14.0861 16.8453 18.3361 16.8453 23.5601C16.8453 28.7842 20.9917 33.0344 26.0883 33.0344C31.1849 33.0344 35.3315 28.7844 35.3315 23.5601C35.3315 18.3363 31.1851 14.0861 26.0883 14.0861Z" fill="#2B2E33"/>
<path d="M26.0885 37.0456C18.8341 37.0456 12.9321 30.9961 12.9321 23.5603C12.9321 16.1245 18.8339 10.0752 26.0885 10.0752C33.3427 10.0752 39.2447 16.1245 39.2447 23.5603C39.2449 30.9961 33.3429 37.0456 26.0885 37.0456ZM26.0885 10.577C19.1041 10.577 13.4219 16.4013 13.4219 23.5603C13.4219 30.7193 19.1043 36.5436 26.0885 36.5436C33.0727 36.5436 38.7549 30.7193 38.7549 23.5603C38.7549 16.4013 33.0729 10.577 26.0885 10.577Z" fill="#2B2E33"/>
<path d="M25.7842 36.093C25.7427 36.0921 25.7018 36.0826 25.664 36.0652C25.6261 36.0478 25.592 36.0228 25.5637 35.9917C25.5355 35.9605 25.5135 35.9239 25.4993 35.884C25.4851 35.844 25.4788 35.8015 25.4808 35.7591L25.557 34.1689C25.5607 34.0922 25.5934 34.02 25.6483 33.9676C25.7031 33.9153 25.7757 33.8869 25.8506 33.8886C25.9265 33.8904 25.9987 33.9229 26.0513 33.9791C26.1038 34.0352 26.1325 34.1105 26.131 34.1883L26.1008 35.7816C26.1 35.8234 26.0912 35.8646 26.0749 35.9029C26.0585 35.9411 26.035 35.9757 26.0056 36.0047C25.9762 36.0336 25.9415 36.0563 25.9035 36.0714C25.8655 36.0866 25.825 36.0939 25.7842 36.093ZM28.14 35.5989L27.8688 33.9989C27.8574 33.9298 27.8729 33.8588 27.9119 33.8012C27.951 33.7436 28.0104 33.7039 28.0776 33.6906L28.084 33.6894C28.151 33.675 28.2208 33.6881 28.2785 33.7258C28.3362 33.7635 28.3772 33.8228 28.3928 33.8911L28.745 35.4745C28.7542 35.5151 28.7554 35.5571 28.7486 35.5981C28.7417 35.6391 28.7269 35.6783 28.7051 35.7134C28.6833 35.7485 28.6548 35.7788 28.6214 35.8025C28.588 35.8261 28.5504 35.8427 28.5106 35.8513L28.4982 35.8538C28.4583 35.8616 28.4173 35.8612 28.3776 35.8526C28.3378 35.844 28.3002 35.8273 28.2668 35.8036C28.2335 35.7798 28.2051 35.7495 28.1833 35.7144C28.1615 35.6792 28.1468 35.64 28.14 35.5989ZM23.079 35.7099L23.072 35.708C22.9054 35.6648 22.8082 35.4868 22.8546 35.3173L23.2816 33.7562C23.3005 33.6886 23.3444 33.6312 23.4041 33.5964C23.4637 33.5616 23.5342 33.552 23.6006 33.5699L23.607 33.5715C23.7456 33.6076 23.8324 33.748 23.8008 33.8909L23.4518 35.4721C23.4136 35.644 23.2456 35.7531 23.079 35.7099ZM30.6998 34.8294L30.0866 33.3321C30.0604 33.2673 30.06 33.1945 30.0854 33.1294C30.1109 33.0644 30.1602 33.0121 30.2228 32.9838L30.2276 32.9815C30.2897 32.952 30.3607 32.9487 30.4252 32.9722C30.4897 32.9958 30.5426 33.0443 30.5726 33.1074L31.2616 34.5698C31.2794 34.6073 31.2898 34.6479 31.292 34.6895C31.2943 34.7311 31.2884 34.7727 31.2748 34.8119C31.2612 34.8511 31.2401 34.8871 31.2127 34.9179C31.1854 34.9486 31.1523 34.9734 31.1154 34.9909L31.1048 34.9958C31.0676 35.0126 31.0275 35.0216 30.9869 35.0223C30.9463 35.023 30.9059 35.0153 30.8682 34.9998C30.8305 34.9843 30.7961 34.9613 30.7672 34.932C30.7383 34.9027 30.7154 34.8678 30.6998 34.8294ZM20.5166 34.7185L20.509 34.7144C20.4728 34.6949 20.4408 34.6683 20.4148 34.6359C20.3888 34.6036 20.3693 34.5663 20.3576 34.5262C20.3458 34.4861 20.342 34.444 20.3463 34.4023C20.3507 34.3607 20.3631 34.3203 20.3828 34.2837L21.1408 32.8606C21.1739 32.799 21.2293 32.7532 21.295 32.7329C21.3607 32.7127 21.4315 32.7197 21.4922 32.7523L21.4986 32.7556C21.5599 32.7871 21.6067 32.842 21.629 32.9085C21.6512 32.975 21.6471 33.0478 21.6176 33.1113L20.9318 34.5723C20.8572 34.731 20.6696 34.7988 20.5166 34.7185ZM33.026 33.4942L32.1022 32.1746C32.0626 32.1175 32.0464 32.0467 32.057 31.9774C32.0677 31.9081 32.1043 31.8459 32.1592 31.804L32.1644 31.7999C32.2186 31.7571 32.287 31.7377 32.355 31.7459C32.4229 31.7542 32.485 31.7894 32.528 31.844L33.5172 33.1127C33.5427 33.1451 33.5616 33.1824 33.5729 33.2224C33.5841 33.2624 33.5874 33.3043 33.5827 33.3457C33.5779 33.387 33.5651 33.4269 33.5451 33.4632C33.5251 33.4994 33.4982 33.5311 33.466 33.5565L33.4566 33.5639C33.424 33.5887 33.3869 33.6066 33.3475 33.6166C33.3081 33.6265 33.2671 33.6283 33.227 33.6218C33.1869 33.6153 33.1485 33.6007 33.114 33.5788C33.0795 33.5569 33.0496 33.5281 33.026 33.4942ZM18.2358 33.1666L18.23 33.1617C18.0984 33.0485 18.0864 32.845 18.2002 32.713L19.2474 31.4979C19.293 31.4454 19.3569 31.4133 19.4254 31.4085C19.4939 31.4037 19.5614 31.4266 19.6136 31.4723L19.6188 31.4768C19.7282 31.5709 19.7468 31.7361 19.6578 31.8507L18.6724 33.1189C18.5652 33.2564 18.3674 33.2796 18.2358 33.1666ZM35.0108 31.6568L33.8246 30.5799C33.7736 30.5331 33.7425 30.4678 33.738 30.3978C33.7334 30.3278 33.7558 30.2587 33.8002 30.2054L33.805 30.1995C33.8486 30.1454 33.9112 30.111 33.9792 30.1036C34.0473 30.0962 34.1155 30.1164 34.1692 30.1599L35.4074 31.173C35.5408 31.2823 35.563 31.4834 35.4532 31.6174L35.4456 31.6267C35.3358 31.7609 35.1386 31.7728 35.0108 31.6568ZM16.3486 31.1371C16.347 31.1351 16.3455 31.1329 16.344 31.1308C16.2402 30.9905 16.2724 30.7892 16.4118 30.6863L17.6956 29.7392C17.7515 29.6985 17.8207 29.6817 17.8884 29.6925C17.9562 29.7034 18.0171 29.741 18.0582 29.7972L18.0616 29.8018C18.1035 29.8574 18.1225 29.9276 18.1146 29.9974C18.1066 30.0672 18.0723 30.1311 18.019 30.1753L16.7846 31.1892C16.6504 31.2995 16.4526 31.2773 16.3486 31.1371ZM36.546 29.4211L35.156 28.6417C35.0961 28.6077 35.0515 28.5511 35.0319 28.4838C35.0123 28.4166 35.0191 28.3442 35.051 28.2821L35.0548 28.2745C35.0856 28.2119 35.1391 28.1641 35.2039 28.1414C35.2686 28.1187 35.3394 28.1228 35.4012 28.1529L36.8284 28.8585C36.9822 28.9346 37.0476 29.1257 36.9694 29.2813L36.9636 29.2927C36.9447 29.3296 36.9189 29.3622 36.8875 29.3887C36.8562 29.4152 36.82 29.435 36.7811 29.4469C36.7422 29.4589 36.7014 29.4627 36.661 29.4583C36.6207 29.4539 36.5816 29.4412 36.546 29.4211ZM14.947 28.7288L14.9444 28.7228C14.9278 28.6845 14.9189 28.6432 14.9181 28.6013C14.9173 28.5594 14.9247 28.5178 14.9398 28.4788C14.955 28.4399 14.9775 28.4044 15.0062 28.3746C15.0349 28.3447 15.0691 28.321 15.1068 28.3048L16.5636 27.6732C16.6269 27.6462 16.6981 27.6456 16.7618 27.6716C16.8255 27.6976 16.8768 27.7482 16.9046 27.8124L16.9068 27.8174C16.9658 27.9508 16.9128 28.108 16.7842 28.172L15.3608 28.879C15.206 28.9559 15.018 28.8893 14.947 28.7288ZM37.555 26.8875L36.0324 26.4482C35.9992 26.4384 35.9682 26.422 35.9412 26.4C35.9141 26.3779 35.8916 26.3506 35.875 26.3195C35.8583 26.2885 35.8478 26.2544 35.844 26.2192C35.8402 26.184 35.8433 26.1484 35.853 26.1144C35.8694 26.0462 35.9111 25.9873 35.9693 25.9503C36.0275 25.9133 36.0976 25.9011 36.1644 25.9164L37.7068 26.276C37.8744 26.3151 37.9808 26.4877 37.9384 26.6585L37.9368 26.665C37.8942 26.8356 37.7204 26.935 37.555 26.8875ZM14.1066 26.0669L14.1024 26.0453C14.0948 26.0051 14.0951 25.9637 14.1033 25.9236C14.1116 25.8835 14.1275 25.8455 14.1503 25.8118C14.173 25.7781 14.2021 25.7494 14.2358 25.7273C14.2695 25.7053 14.3072 25.6904 14.3466 25.6835L15.92 25.3998C16.056 25.3752 16.1842 25.4676 16.2114 25.6064L16.2162 25.6304C16.2299 25.6968 16.2176 25.766 16.1821 25.8233C16.1466 25.8805 16.0906 25.9212 16.0262 25.9367L14.4692 26.303C14.4303 26.3123 14.3899 26.3135 14.3505 26.3067C14.311 26.2998 14.2733 26.2849 14.2396 26.2629C14.2058 26.2409 14.1767 26.2123 14.1538 26.1786C14.131 26.1449 14.115 26.107 14.1066 26.0669ZM37.9852 24.1905L36.4326 24.1107C36.3577 24.1069 36.2873 24.0734 36.2361 24.0172C36.185 23.961 36.1572 23.8866 36.1586 23.8098L36.1588 23.802C36.1603 23.7246 36.1913 23.6509 36.2452 23.5967C36.2992 23.5425 36.3717 23.5121 36.4472 23.5121H38.0016C38.1746 23.5121 38.3136 23.6569 38.3102 23.8342L38.3092 23.8818C38.3083 23.924 38.2991 23.9657 38.2822 24.0042C38.2653 24.0428 38.241 24.0775 38.2108 24.1062C38.1806 24.135 38.1451 24.1573 38.1063 24.1718C38.0676 24.1862 38.0264 24.1926 37.9852 24.1905ZM13.867 23.2657L13.8672 23.2571C13.868 23.2158 13.8769 23.175 13.8934 23.1373C13.9098 23.0995 13.9335 23.0656 13.9629 23.0374C13.9924 23.0091 14.0271 22.9873 14.065 22.9731C14.1029 22.9588 14.1431 22.9525 14.1834 22.9545L15.7772 23.0347C15.8434 23.0384 15.9055 23.0684 15.9503 23.1185C15.9951 23.1685 16.0189 23.2346 16.0168 23.3024L16.0166 23.3076C16.0156 23.375 15.989 23.4394 15.9424 23.487C15.8958 23.5346 15.833 23.5618 15.7672 23.5628L14.1716 23.5806C14.1312 23.5811 14.0912 23.5733 14.0538 23.5577C14.0165 23.542 13.9826 23.5188 13.9541 23.4894C13.9257 23.46 13.9034 23.4251 13.8884 23.3867C13.8734 23.3482 13.8661 23.3071 13.867 23.2657ZM35.9594 21.4835L35.9582 21.4775C35.9439 21.4089 35.9565 21.3372 35.9931 21.2779C36.0297 21.2186 36.0876 21.1763 36.1542 21.1602L37.6952 20.7949C37.8628 20.7551 38.032 20.8631 38.0664 21.0357L38.068 21.0435C38.1024 21.2164 37.988 21.3836 37.8186 21.4144L36.261 21.6967C36.1935 21.7086 36.1242 21.6929 36.0678 21.6531C36.0114 21.6132 35.9725 21.5524 35.9594 21.4835ZM16.0164 21.2278L14.4578 20.8691C14.4188 20.8603 14.3818 20.8436 14.3491 20.8199C14.3165 20.7963 14.2887 20.7662 14.2675 20.7314C14.2464 20.6967 14.2322 20.6579 14.2258 20.6174C14.2194 20.577 14.221 20.5356 14.2304 20.4958L14.236 20.473C14.2772 20.3059 14.4472 20.2086 14.609 20.2551L16.147 20.6977C16.2798 20.7358 16.3564 20.8761 16.3224 21.013L16.3168 21.0355C16.3012 21.1015 16.261 21.1585 16.2049 21.1945C16.1487 21.2304 16.0811 21.2424 16.0164 21.2278ZM35.2634 19.2871L35.2612 19.2822C35.2323 19.2185 35.2289 19.1458 35.2516 19.0796C35.2744 19.0134 35.3216 18.9589 35.383 18.9279L36.8052 18.2184C36.9598 18.1414 37.1482 18.2078 37.2194 18.3681L37.222 18.374C37.2386 18.4124 37.2476 18.4537 37.2485 18.4956C37.2493 18.5376 37.242 18.5793 37.2269 18.6182C37.2118 18.6572 37.1893 18.6927 37.1606 18.7227C37.1319 18.7526 37.0977 18.7764 37.06 18.7926L35.6038 19.4257C35.5407 19.4528 35.4697 19.4535 35.406 19.4276C35.3424 19.4017 35.2912 19.3512 35.2634 19.2871ZM16.7656 18.9874L15.3402 18.2865C15.185 18.2102 15.1186 18.0175 15.197 17.8605L15.201 17.8525C15.22 17.8153 15.246 17.7824 15.2776 17.7556C15.3092 17.7289 15.3457 17.7089 15.3849 17.6968C15.4241 17.6847 15.4653 17.6808 15.506 17.6852C15.5467 17.6897 15.5862 17.7024 15.622 17.7227L17.0096 18.4995C17.0705 18.534 17.1156 18.5918 17.135 18.6602C17.1544 18.7287 17.1465 18.8023 17.113 18.8648C17.0822 18.9277 17.0287 18.9758 16.9637 18.9987C16.8988 19.0217 16.8277 19.0176 16.7656 18.9874ZM34.1062 17.3062L34.1022 17.3006C34.0602 17.2452 34.0411 17.1751 34.0489 17.1054C34.0567 17.0356 34.0909 16.9718 34.144 16.9275L35.3768 15.9116C35.4086 15.8852 35.4452 15.8655 35.4845 15.8538C35.5237 15.8421 35.5649 15.8385 35.6056 15.8433C35.6462 15.8481 35.6855 15.8611 35.7212 15.8817C35.7568 15.9023 35.7881 15.9299 35.8132 15.963L35.8172 15.9684C35.8417 16.0019 35.8595 16.0402 35.8694 16.0809C35.8793 16.1216 35.8812 16.1639 35.875 16.2053C35.8688 16.2468 35.8545 16.2865 35.8331 16.3223C35.8116 16.358 35.7835 16.389 35.7502 16.4134L34.4684 17.3634C34.4127 17.4043 34.3436 17.4212 34.2759 17.4105C34.2082 17.3998 34.1473 17.3624 34.1062 17.3062ZM17.9936 16.9835L16.7558 15.9753C16.7236 15.9494 16.6968 15.9171 16.677 15.8804C16.6572 15.8437 16.6447 15.8033 16.6403 15.7615C16.6359 15.7198 16.6397 15.6776 16.6514 15.6374C16.6631 15.5972 16.6826 15.5598 16.7086 15.5274L16.7132 15.5219C16.8238 15.3866 17.0226 15.3743 17.1518 15.4909L18.337 16.5633C18.4442 16.6602 18.4542 16.8265 18.3622 16.939L18.3588 16.9431C18.3152 16.9975 18.2525 17.0322 18.1843 17.0397C18.116 17.0473 18.0475 17.0271 17.9936 16.9835ZM32.5464 15.6338L32.5424 15.6303C32.4894 15.5857 32.4555 15.5216 32.4481 15.4517C32.4406 15.3818 32.4602 15.3117 32.5026 15.2564L33.4842 13.9868C33.5914 13.8482 33.7898 13.8245 33.9222 13.9378C33.9238 13.9393 33.9254 13.9406 33.927 13.9419C34.0594 14.0553 34.0716 14.2597 33.9576 14.3923L32.9126 15.6076C32.867 15.6601 32.8032 15.6923 32.7347 15.6972C32.6663 15.7021 32.5987 15.6794 32.5464 15.6338ZM19.6258 15.3023L18.6362 14.0385C18.6105 14.0059 18.5913 13.9683 18.5799 13.928C18.5685 13.8877 18.565 13.8455 18.5698 13.8038C18.5745 13.7621 18.5872 13.7219 18.6073 13.6853C18.6274 13.6487 18.6545 13.6167 18.6868 13.591L18.6918 13.5871C18.8288 13.4803 19.0254 13.5133 19.1262 13.6562L20.0512 14.9704C20.135 15.0893 20.1088 15.2537 19.9948 15.3425L19.9906 15.3458C19.9363 15.3889 19.8678 15.4085 19.7996 15.4004C19.7314 15.3922 19.669 15.357 19.6258 15.3023ZM30.6648 14.3579C30.6019 14.3272 30.5535 14.2722 30.5301 14.2049C30.5068 14.1376 30.5104 14.0636 30.5402 13.9991L31.222 12.5385C31.2966 12.3788 31.485 12.3105 31.6386 12.3909L31.6442 12.3938C31.6806 12.4132 31.7129 12.4399 31.7391 12.4723C31.7653 12.5048 31.785 12.5422 31.7968 12.5825C31.8087 12.6228 31.8126 12.6651 31.8083 12.707C31.804 12.7489 31.7916 12.7894 31.7718 12.8263L31.0168 14.2486C30.9837 14.3104 30.9284 14.3564 30.8626 14.3769C30.7968 14.3973 30.7258 14.3905 30.6648 14.3579ZM21.5794 14.0284L20.8882 12.5705C20.8701 12.5328 20.8596 12.4918 20.8572 12.4499C20.8548 12.408 20.8606 12.366 20.8742 12.3264C20.8879 12.2869 20.9091 12.2505 20.9366 12.2194C20.9642 12.1883 20.9975 12.1632 21.0346 12.1455L21.0404 12.1428C21.1972 12.0699 21.3818 12.1469 21.4488 12.3093L22.0652 13.8021C22.0917 13.8669 22.0923 13.9397 22.067 14.005C22.0417 14.0702 21.9924 14.1227 21.9298 14.1512L21.925 14.1535C21.8629 14.1831 21.7919 14.1866 21.7273 14.1632C21.6627 14.1398 21.6096 14.0915 21.5794 14.0284ZM28.5546 13.545L28.5496 13.5438C28.4831 13.5273 28.4255 13.4847 28.3892 13.4252C28.3529 13.3657 28.3408 13.294 28.3554 13.2255L28.7004 11.6443C28.738 11.4717 28.9068 11.3616 29.0742 11.4046L29.0804 11.4063C29.2478 11.4495 29.3458 11.6283 29.2992 11.7989L28.8728 13.3591C28.8539 13.4265 28.81 13.4837 28.7506 13.5184C28.6912 13.5531 28.6208 13.5627 28.5546 13.545ZM23.7578 13.2396L23.4024 11.6609C23.3636 11.4889 23.4692 11.3153 23.638 11.28L23.6442 11.2788C23.6844 11.2708 23.7258 11.2711 23.7659 11.2797C23.806 11.2882 23.8441 11.305 23.8778 11.3288C23.9115 11.3526 23.9403 11.3831 23.9624 11.4185C23.9844 11.4539 23.9994 11.4934 24.0064 11.5348L24.2818 13.1303C24.2935 13.1997 24.2782 13.271 24.2392 13.3289C24.2002 13.3869 24.1406 13.4268 24.0732 13.4403L24.068 13.4413C24.0008 13.4559 23.9308 13.4429 23.8728 13.4052C23.8148 13.3675 23.7736 13.3081 23.7578 13.2396ZM26.3206 13.238L26.3136 13.2378C26.244 13.2364 26.1778 13.2071 26.129 13.1562C26.0803 13.1053 26.053 13.0368 26.053 12.9655V11.3433C26.053 11.1695 26.1918 11.0295 26.3614 11.0328L26.3698 11.033C26.4103 11.0338 26.4503 11.0429 26.4873 11.0597C26.5244 11.0766 26.5577 11.101 26.5854 11.1313C26.6131 11.1616 26.6346 11.1974 26.6486 11.2363C26.6625 11.2753 26.6687 11.3168 26.6668 11.3583L26.591 12.9786C26.5876 13.0494 26.5575 13.116 26.5071 13.1644C26.4566 13.2128 26.3897 13.2392 26.3206 13.238Z" fill="#2B2E33"/>
<path d="M25.1077 24.6551V25.8642H28.0609V27.3777H25.1077V29.2354H22.7249V27.3777H21.6389V25.8642H22.7249V24.6551H21.6389V23.1416H22.7249V17.7524C24.4359 17.8495 28.7429 17.1991 29.9597 19.394C31.8481 23.2786 28.0951 25.0485 25.1077 24.6551ZM25.1077 19.2739V23.1416C26.5333 23.282 28.1269 22.9346 28.0451 21.1796C28.1219 19.4467 26.5049 19.1439 25.1077 19.2739Z" fill="#2B2E33"/>
</svg>
