<svg width="40" height="41" viewBox="0 0 40 41" fill="none" xmlns="http://www.w3.org/2000/svg">
<path d="M19.9654 0C9.44068 0 0.818798 8.30378 0 18.8556L10.7381 23.3985C11.6477 22.7612 12.7476 22.3899 13.9297 22.3899C14.0363 22.3899 14.1416 22.3929 14.2454 22.3987L19.0212 15.3155V15.2161C19.0212 10.9538 22.4103 7.48524 26.5763 7.48524C30.7424 7.48524 34.1315 10.9538 34.1315 15.2161C34.1315 19.4783 30.7424 22.9483 26.5763 22.9483C26.5187 22.9483 26.4624 22.9468 26.4048 22.9454L19.5935 27.9166C19.5978 28.0086 19.6007 28.1007 19.6007 28.1913C19.6007 31.3924 17.0564 33.9956 13.9297 33.9956C11.185 33.9956 8.88857 31.9902 8.36961 29.3358L0.689059 26.0866C3.06761 34.6914 10.7943 41 19.9654 41C31.0307 41 40 31.8206 40 20.5C40 9.17786 31.0307 0 19.9654 0ZM12.555 31.1053L10.0943 30.0646C10.5296 30.9942 11.285 31.7718 12.2869 32.1987C14.4521 33.1224 16.9488 32.0714 17.8512 29.8541C18.288 28.7812 18.2909 27.5973 17.8584 26.5215C17.426 25.4457 16.6086 24.6067 15.5606 24.1594C14.5184 23.7165 13.4026 23.7326 12.4224 24.1112L14.9653 25.187C16.5625 25.8682 17.3179 27.7449 16.6519 29.3791C15.9873 31.0133 14.1522 31.7865 12.555 31.1053ZM31.6108 15.2162C31.6108 12.3761 29.3519 10.0638 26.5769 10.0638C23.8005 10.0638 21.5416 12.3761 21.5416 15.2162C21.5416 18.0562 23.8005 20.3672 26.5769 20.3672C29.3519 20.3672 31.6108 18.0562 31.6108 15.2162ZM22.8029 15.2075C22.8029 13.0704 24.4968 11.3384 26.5841 11.3384C28.6729 11.3384 30.3667 13.0704 30.3667 15.2075C30.3667 17.3444 28.6729 19.0764 26.5841 19.0764C24.4968 19.0764 22.8029 17.3444 22.8029 15.2075Z" fill="#42454A"/>
</svg>
