<svg width="11" height="9" viewBox="0 0 11 9" fill="none" xmlns="http://www.w3.org/2000/svg">
<path fill-rule="evenodd" clip-rule="evenodd" d="M9.83123 0.205003C10.0171 0.357376 10.1349 0.57732 10.1587 0.816501C10.1825 1.05568 10.1104 1.29453 9.95818 1.48055L3.95282 8.82071L0.351662 5.96976C0.256851 5.89636 0.17754 5.80488 0.118318 5.70062C0.0590967 5.59636 0.0211411 5.48138 0.00664819 5.36236C-0.00784473 5.24333 0.00141268 5.12261 0.0338848 5.00718C0.0663569 4.89176 0.121399 4.78392 0.195825 4.68991C0.270251 4.5959 0.362583 4.51758 0.467478 4.45949C0.572373 4.4014 0.687748 4.36469 0.806925 4.35148C0.926101 4.33828 1.04671 4.34884 1.16178 4.38256C1.27685 4.41627 1.38409 4.47248 1.47729 4.54792L3.67958 6.29137L8.55508 0.331953C8.70745 0.146059 8.92739 0.0282655 9.16658 0.00446077C9.40576 -0.019344 9.64521 0.0527875 9.83123 0.205003Z" fill="#F9EC31"/>
</svg>
