<svg width="702" height="511" viewBox="0 0 702 511" fill="none" xmlns="http://www.w3.org/2000/svg">
<path fill-rule="evenodd" clip-rule="evenodd" d="M365.645 62.5593C308.196 72.6622 244.814 62.8917 198.814 98.7301C153.42 134.096 151.008 198.72 125.014 250.034C92.2556 314.7 17.0181 366.321 26.8846 438.124C36.7979 510.267 111.133 554.433 172.286 594.052C230.643 631.86 296.133 655.226 365.645 657.598C437.112 660.036 513.118 652.353 568.844 607.582C623.441 563.717 638.049 490.149 657.692 422.959C676.706 357.921 693.367 292.476 680.407 225.969C666.145 152.777 647.629 65.8305 581.403 31.449C515.306 -2.86539 439.005 49.6585 365.645 62.5593Z" fill="#479DCB"/>
<path fill-rule="evenodd" clip-rule="evenodd" d="M365.645 62.5593C308.196 72.6622 244.814 62.8917 198.814 98.7301C153.42 134.096 151.008 198.72 125.014 250.034C92.2556 314.7 17.0181 366.321 26.8846 438.124C36.7979 510.267 111.133 554.433 172.286 594.052C230.643 631.86 296.133 655.226 365.645 657.598C437.112 660.036 513.118 652.353 568.844 607.582C623.441 563.717 638.049 490.149 657.692 422.959C676.706 357.921 693.367 292.476 680.407 225.969C666.145 152.777 647.629 65.8305 581.403 31.449C515.306 -2.86539 439.005 49.6585 365.645 62.5593Z" fill="url(#paint0_linear_1_959)"/>
<path fill-rule="evenodd" clip-rule="evenodd" d="M365.645 62.5593C308.196 72.6622 244.814 62.8917 198.814 98.7301C153.42 134.096 151.008 198.72 125.014 250.034C92.2556 314.7 17.0181 366.321 26.8846 438.124C36.7979 510.267 111.133 554.433 172.286 594.052C230.643 631.86 296.133 655.226 365.645 657.598C437.112 660.036 513.118 652.353 568.844 607.582C623.441 563.717 638.049 490.149 657.692 422.959C676.706 357.921 693.367 292.476 680.407 225.969C666.145 152.777 647.629 65.8305 581.403 31.449C515.306 -2.86539 439.005 49.6585 365.645 62.5593Z" fill="url(#paint1_linear_1_959)"/>
<path fill-rule="evenodd" clip-rule="evenodd" d="M670.509 510.97C639.715 575.74 589.704 633.204 523.496 660.768C458.104 687.993 385.272 674.211 316.208 658.477C248.113 642.964 180.892 620.578 131.285 571.418C79.7252 520.325 27.3912 453.314 36.5049 381.301C45.4689 310.47 136.493 285.001 175.131 224.964C210.669 169.742 197.705 86.9348 250.81 48.3049C306.527 7.77565 384.294 7.08054 451.01 24.2832C516.106 41.0681 566.753 88.9459 609.533 140.801C650.714 190.72 678.451 248.872 688.969 312.724C700.027 379.852 699.721 449.528 670.509 510.97Z" fill="#479DCB"/>
<path fill-rule="evenodd" clip-rule="evenodd" d="M670.509 510.97C639.715 575.74 589.704 633.204 523.496 660.768C458.104 687.993 385.272 674.211 316.208 658.477C248.113 642.964 180.892 620.578 131.285 571.418C79.7252 520.325 27.3912 453.314 36.5049 381.301C45.4689 310.47 136.493 285.001 175.131 224.964C210.669 169.742 197.705 86.9348 250.81 48.3049C306.527 7.77565 384.294 7.08054 451.01 24.2832C516.106 41.0681 566.753 88.9459 609.533 140.801C650.714 190.72 678.451 248.872 688.969 312.724C700.027 379.852 699.721 449.528 670.509 510.97Z" fill="url(#paint2_linear_1_959)"/>
<path fill-rule="evenodd" clip-rule="evenodd" d="M670.509 510.97C639.715 575.74 589.704 633.204 523.496 660.768C458.104 687.993 385.272 674.211 316.208 658.477C248.113 642.964 180.892 620.578 131.285 571.418C79.7252 520.325 27.3912 453.314 36.5049 381.301C45.4689 310.47 136.493 285.001 175.131 224.964C210.669 169.742 197.705 86.9348 250.81 48.3049C306.527 7.77565 384.294 7.08054 451.01 24.2832C516.106 41.0681 566.753 88.9459 609.533 140.801C650.714 190.72 678.451 248.872 688.969 312.724C700.027 379.852 699.721 449.528 670.509 510.97Z" fill="url(#paint3_linear_1_959)"/>
<defs>
<linearGradient id="paint0_linear_1_959" x1="647.5" y1="-7.43712e-06" x2="336" y2="510.5" gradientUnits="userSpaceOnUse">
<stop stop-color="#F9F9FA"/>
<stop offset="1" stop-color="#479DCB"/>
</linearGradient>
<linearGradient id="paint1_linear_1_959" x1="157" y1="91" x2="308" y2="472.5" gradientUnits="userSpaceOnUse">
<stop stop-color="#F9F9FA"/>
<stop offset="1" stop-color="white" stop-opacity="0"/>
</linearGradient>
<linearGradient id="paint2_linear_1_959" x1="819.501" y1="318" x2="282.043" y2="313.967" gradientUnits="userSpaceOnUse">
<stop stop-color="#F9F9FA"/>
<stop offset="1" stop-color="#479DCB"/>
</linearGradient>
<linearGradient id="paint3_linear_1_959" x1="447.501" y1="-76" x2="685.281" y2="617.69" gradientUnits="userSpaceOnUse">
<stop stop-color="#F9F9FA"/>
<stop offset="1" stop-color="white" stop-opacity="0"/>
</linearGradient>
</defs>
</svg>
