<svg width="170" height="50" viewBox="0 0 170 50" fill="none" xmlns="http://www.w3.org/2000/svg">
<path d="M46.9015 24.9997V6.35163H54.4403C55.9847 6.35163 57.2805 6.61876 58.3275 7.15293C59.3811 7.68709 60.1762 8.42166 60.7128 9.35643C61.256 10.2852 61.5276 11.3414 61.5276 12.5252C61.5276 13.721 61.256 14.7833 60.7128 15.7121C60.1697 16.6408 59.368 17.3723 58.3079 17.9065C57.2477 18.4346 55.9421 18.6987 54.3912 18.6987H49.3948V15.9215H53.9004C54.8035 15.9215 55.543 15.7758 56.1188 15.4844C56.6947 15.193 57.1201 14.7924 57.395 14.2825C57.6764 13.7726 57.817 13.1868 57.817 12.5252C57.817 11.8635 57.6764 11.2807 57.395 10.7769C57.1201 10.273 56.6915 9.8815 56.1091 9.60227C55.5331 9.31696 54.7904 9.17435 53.8808 9.17435H50.5433V24.9997H46.9015ZM64.6908 24.9997V6.35163H77.7663V9.18343H68.3326V14.246H77.0887V17.0779H68.3326V22.1679H77.8451V24.9997H64.6908ZM81.4814 24.9997V6.35163H89.0198C90.5647 6.35163 91.8599 6.60049 92.9072 7.09831C93.9608 7.59606 94.7562 8.29412 95.2927 9.1925C95.8354 10.0849 96.1076 11.126 96.1076 12.3157C96.1076 13.5116 95.8323 14.5496 95.2826 15.4298C94.7398 16.304 93.9381 16.9807 92.8776 17.4603C91.8178 17.9338 90.5155 18.1706 88.9707 18.1706H83.6017V15.366H88.4802C89.3832 15.366 90.1225 15.2507 90.698 15.02C91.2751 14.7833 91.7001 14.4403 91.9746 13.9911C92.2561 13.5359 92.3972 12.9774 92.3972 12.3157C92.3972 11.654 92.2561 11.0895 91.9746 10.6221C91.6938 10.1487 91.2649 9.7905 90.6887 9.54766C90.1132 9.29873 89.37 9.17435 88.4607 9.17435H85.1231V24.9997H81.4814ZM91.867 16.5498L96.843 24.9997H92.7801L87.8915 16.5498H91.867ZM99.4592 24.9997V6.35163H112.338V9.18343H103.102V14.246H111.455V17.0779H103.102V24.9997H99.4592ZM115.657 24.9997V6.35163H128.731V9.18343H119.298V14.246H128.054V17.0779H119.298V22.1679H128.81V24.9997H115.657ZM149.654 12.6435H145.983C145.879 12.085 145.686 11.5903 145.404 11.1593C145.122 10.7223 144.773 10.352 144.353 10.0484C143.935 9.74496 143.457 9.51727 142.921 9.36558C142.39 9.20773 141.818 9.12881 141.203 9.12881C140.11 9.12881 139.142 9.38373 138.297 9.89366C137.453 10.3975 136.792 11.138 136.314 12.1154C135.837 13.0867 135.598 14.2733 135.598 15.6756C135.598 17.1021 135.837 18.304 136.314 19.2813C136.798 20.2527 137.46 20.9871 138.297 21.4849C139.142 21.9767 140.107 22.2225 141.193 22.2225C141.795 22.2225 142.358 22.1497 142.882 22.004C143.411 21.8522 143.885 21.6306 144.304 21.3393C144.73 21.0479 145.086 20.6897 145.375 20.2648C145.669 19.8399 145.872 19.3543 145.983 18.8079L149.654 18.8261C149.517 19.7124 149.219 20.544 148.761 21.321C148.31 22.098 147.717 22.784 146.984 23.3789C146.252 23.9677 145.394 24.429 144.413 24.7629C143.431 25.0907 142.342 25.2546 141.144 25.2546C139.377 25.2546 137.8 24.8752 136.412 24.1164C135.025 23.3576 133.933 22.262 133.134 20.8293C132.336 19.3967 131.936 17.6788 131.936 15.6756C131.936 13.6663 132.339 11.9485 133.143 10.522C133.949 9.08935 135.045 7.99366 136.432 7.23485C137.819 6.47606 139.391 6.09668 141.144 6.09668C142.263 6.09668 143.304 6.24237 144.266 6.53376C145.227 6.8251 146.084 7.25306 146.837 7.81758C147.59 8.37604 148.208 9.06204 148.693 9.87543C149.183 10.6828 149.504 11.6055 149.654 12.6435ZM152.106 9.18343V6.35163H168.145V9.18343H161.932V24.9997H158.32V9.18343H152.106Z" fill="white"/>
<path d="M4.49194 9.29477L0.345581 4.80762H32.4797V47.4358L28.3334 42.6282L27.6423 9.29477H4.49194Z" fill="white"/>
<path d="M32.4797 49.9999H0L0.345529 4.80762L4.49187 9.29477V45.8332L32.4797 49.9999Z" fill="#00A2FC"/>
<path d="M17.9674 27.885V25.9619H25.9146V27.885H17.9674Z" fill="white"/>
<path d="M51.7834 47.6918H48.4357L48.457 45.4202H51.7834C52.6861 45.4202 53.443 45.2239 54.0543 44.8312C54.6656 44.4316 55.1276 43.8602 55.4403 43.1169C55.7531 42.3668 55.9094 41.4693 55.9094 40.4246V39.6359C55.9094 38.8296 55.8205 38.1179 55.6429 37.501C55.4652 36.884 55.2022 36.3652 54.854 35.9445C54.5128 35.5238 54.0898 35.2048 53.5852 34.9875C53.0806 34.7701 52.5013 34.6614 51.8474 34.6614H48.3717V32.3793H51.8474C52.8851 32.3793 53.8305 32.5511 54.6833 32.8946C55.5434 33.2382 56.2861 33.7325 56.9116 34.3775C57.5442 35.0155 58.0275 35.7797 58.3616 36.6702C58.7027 37.5606 58.8734 38.5562 58.8734 39.6569V40.4246C58.8734 41.5184 58.7027 42.514 58.3616 43.4114C58.0275 44.3019 57.5442 45.0661 56.9116 45.7041C56.2861 46.3421 55.5398 46.8329 54.6727 47.1765C53.8056 47.52 52.8424 47.6918 51.7834 47.6918ZM50.0776 32.3793V47.6918H47.1456V32.3793H50.0776ZM73.9381 39.6464V40.4352C73.9381 41.592 73.7817 42.6332 73.469 43.5587C73.1562 44.4772 72.712 45.2589 72.1363 45.9039C71.5606 46.5489 70.8747 47.0433 70.0786 47.3868C69.2826 47.7303 68.3977 47.9021 67.4239 47.9021C66.4643 47.9021 65.583 47.7303 64.7799 47.3868C63.9837 47.0433 63.2943 46.5489 62.7115 45.9039C62.1286 45.2589 61.6774 44.4772 61.3575 43.5587C61.0376 42.6332 60.8777 41.592 60.8777 40.4352V39.6464C60.8777 38.4826 61.0376 37.4414 61.3575 36.5229C61.6774 35.6045 62.1251 34.8227 62.7009 34.1776C63.2765 33.5256 63.9625 33.0278 64.7585 32.6843C65.5617 32.3407 66.443 32.1689 67.4026 32.1689C68.3764 32.1689 69.2612 32.3407 70.0573 32.6843C70.8534 33.0278 71.5392 33.5256 72.115 34.1776C72.6978 34.8227 73.1456 35.6045 73.4584 36.5229C73.7782 37.4414 73.9381 38.4826 73.9381 39.6464ZM70.9742 40.4352V39.6254C70.9742 38.791 70.896 38.0584 70.7396 37.4273C70.5832 36.7893 70.3523 36.253 70.0467 35.8183C69.741 35.3836 69.3643 35.0576 68.9165 34.8403C68.4687 34.6159 67.9641 34.5037 67.4026 34.5037C66.834 34.5037 66.3294 34.6159 65.8886 34.8403C65.4551 35.0576 65.0855 35.3836 64.7799 35.8183C64.4742 36.253 64.2397 36.7893 64.0761 37.4273C63.9198 38.0584 63.8416 38.791 63.8416 39.6254V40.4352C63.8416 41.2625 63.9198 41.9952 64.0761 42.6332C64.2397 43.2713 64.4742 43.8111 64.7799 44.2528C65.0926 44.6875 65.4693 45.017 65.91 45.2414C66.3506 45.4657 66.8553 45.5779 67.4239 45.5779C67.9925 45.5779 68.4972 45.4657 68.9378 45.2414C69.3785 45.017 69.7481 44.6875 70.0467 44.2528C70.3523 43.8111 70.5832 43.2713 70.7396 42.6332C70.896 41.9952 70.9742 41.2625 70.9742 40.4352ZM88.9918 39.6464V40.4352C88.9918 41.592 88.8359 42.6332 88.5232 43.5587C88.2105 44.4772 87.766 45.2589 87.1905 45.9039C86.6149 46.5489 85.9287 47.0433 85.1325 47.3868C84.3363 47.7303 83.452 47.9021 82.478 47.9021C81.5188 47.9021 80.6369 47.7303 79.8337 47.3868C79.0383 47.0433 78.3481 46.5489 77.7656 45.9039C77.1828 45.2589 76.7314 44.4772 76.4116 43.5587C76.0917 42.6332 75.9319 41.592 75.9319 40.4352V39.6464C75.9319 38.4826 76.0917 37.4414 76.4116 36.5229C76.7314 35.6045 77.1792 34.8227 77.7547 34.1776C78.331 33.5256 79.0164 33.0278 79.8126 32.6843C80.6158 32.3407 81.497 32.1689 82.457 32.1689C83.4302 32.1689 84.3153 32.3407 85.1115 32.6843C85.9077 33.0278 86.5931 33.5256 87.1694 34.1776C87.7519 34.8227 88.1995 35.6045 88.5122 36.5229C88.832 37.4414 88.9918 38.4826 88.9918 39.6464ZM86.0285 40.4352V39.6254C86.0285 38.791 85.9498 38.0584 85.7938 37.4273C85.6371 36.7893 85.4062 36.253 85.1005 35.8183C84.7949 35.3836 84.4182 35.0576 83.9706 34.8403C83.523 34.6159 83.0184 34.5037 82.457 34.5037C81.8877 34.5037 81.3832 34.6159 80.9426 34.8403C80.509 35.0576 80.1394 35.3836 79.8337 35.8183C79.528 36.253 79.294 36.7893 79.1303 37.4273C78.9735 38.0584 78.8955 38.791 78.8955 39.6254V40.4352C78.8955 41.2625 78.9735 41.9952 79.1303 42.6332C79.294 43.2713 79.528 43.8111 79.8337 44.2528C80.1464 44.6875 80.523 45.017 80.9644 45.2414C81.405 45.4657 81.9095 45.5779 82.478 45.5779C83.0465 45.5779 83.5511 45.4657 83.9916 45.2414C84.4322 45.017 84.8019 44.6875 85.1005 44.2528C85.4062 43.8111 85.6371 43.2713 85.7938 42.6332C85.9498 41.9952 86.0285 41.2625 86.0285 40.4352ZM91.4763 32.3793H97.116C98.2958 32.3793 99.3088 32.5546 100.155 32.9051C101.001 33.2557 101.651 33.7746 102.106 34.4616C102.561 35.1487 102.788 35.9936 102.788 36.9962C102.788 37.7885 102.646 38.4756 102.362 39.0575C102.077 39.6394 101.676 40.1267 101.157 40.5193C100.645 40.9119 100.041 41.2204 99.3447 41.4448L98.4276 41.9076H93.4485L93.4274 39.6254H97.1479C97.7523 39.6254 98.2537 39.5203 98.6514 39.3099C99.0499 39.0996 99.3478 38.8086 99.5474 38.437C99.7533 38.0654 99.8562 37.6412 99.8562 37.1645C99.8562 36.6526 99.7572 36.2109 99.5576 35.8393C99.3587 35.4607 99.0569 35.1698 98.6514 34.9664C98.2467 34.7631 97.7344 34.6614 97.116 34.6614H94.4084V47.6918H91.4763V32.3793ZM100.24 47.6918L96.6473 40.8348L99.7494 40.8243L103.386 47.5446V47.6918H100.24ZM113.482 43.7164C113.482 43.4219 113.436 43.159 113.343 42.9276C113.258 42.6893 113.098 42.4755 112.864 42.2862C112.636 42.0898 112.312 41.9006 111.893 41.7183C111.481 41.5289 110.948 41.3326 110.294 41.1293C109.569 40.9049 108.894 40.6526 108.268 40.3721C107.643 40.0916 107.092 39.7656 106.616 39.394C106.147 39.0224 105.78 38.5947 105.518 38.1109C105.255 37.6202 105.123 37.0523 105.123 36.4073C105.123 35.7763 105.258 35.2013 105.529 34.6825C105.805 34.1636 106.196 33.7184 106.701 33.3469C107.206 32.9683 107.799 32.6773 108.482 32.4739C109.171 32.2706 109.931 32.1689 110.763 32.1689C111.915 32.1689 112.91 32.3758 113.749 32.7895C114.594 33.2031 115.248 33.764 115.71 34.4722C116.172 35.1803 116.403 35.976 116.403 36.8595H113.482C113.482 36.3827 113.379 35.962 113.172 35.5974C112.974 35.2329 112.668 34.9454 112.256 34.735C111.851 34.5247 111.339 34.4196 110.721 34.4196C110.123 34.4196 109.626 34.5072 109.228 34.6825C108.837 34.8578 108.542 35.0962 108.343 35.3976C108.151 35.6991 108.055 36.0356 108.055 36.4073C108.055 36.6877 108.122 36.9401 108.258 37.1645C108.393 37.3818 108.596 37.5886 108.865 37.7849C109.135 37.9743 109.47 38.153 109.868 38.3213C110.273 38.4826 110.742 38.6438 111.275 38.8051C112.127 39.0575 112.874 39.3379 113.514 39.6464C114.16 39.9549 114.697 40.3055 115.123 40.6981C115.557 41.0907 115.881 41.5324 116.094 42.0233C116.314 42.514 116.424 43.0714 116.424 43.6954C116.424 44.3545 116.293 44.9434 116.03 45.4623C115.767 45.981 115.39 46.4228 114.9 46.7873C114.409 47.1519 113.82 47.4289 113.13 47.6182C112.448 47.8075 111.684 47.9021 110.838 47.9021C110.084 47.9021 109.338 47.8039 108.599 47.6076C107.867 47.4043 107.202 47.1029 106.605 46.7032C106.008 46.2966 105.532 45.7847 105.176 45.1678C104.821 44.5438 104.644 43.8146 104.644 42.9803H107.586C107.586 43.464 107.665 43.8777 107.82 44.2213C107.984 44.5578 108.211 44.8347 108.503 45.0521C108.802 45.2624 109.149 45.4166 109.548 45.5148C109.945 45.6129 110.376 45.662 110.838 45.662C111.435 45.662 111.925 45.5814 112.309 45.4202C112.7 45.2519 112.991 45.0205 113.183 44.726C113.382 44.4316 113.482 44.095 113.482 43.7164Z" fill="white"/>
</svg>
