<svg width="1300" height="124" viewBox="0 0 1300 124" fill="none" xmlns="http://www.w3.org/2000/svg">
<g clip-path="url(#clip0_10_403)">
<path d="M253.978 20.4718L263.471 10.9784C264.771 9.67842 266.881 9.67842 268.184 10.9784L312.024 54.8184C313.324 56.1184 313.324 58.2284 312.024 59.5318L302.531 69.0251C301.231 70.3251 299.121 70.3251 297.818 69.0251L253.978 25.1851C252.674 23.8818 252.674 21.7718 253.978 20.4718V20.4718Z" stroke="#EEEEEE" stroke-width="5" stroke-linecap="round" stroke-linejoin="round"/>
<path d="M290.103 32.9004L285.103 37.9004" stroke="#EEEEEE" stroke-width="5" stroke-linecap="round" stroke-linejoin="round"/>
<path d="M298.736 41.5332L295.402 44.8665" stroke="#EEEEEE" stroke-width="5.00433" stroke-linecap="round" stroke-linejoin="round"/>
<path d="M306.665 49.4663L301.665 54.4663" stroke="#EEEEEE" stroke-width="5.00433" stroke-linecap="round" stroke-linejoin="round"/>
<path d="M282.167 24.9673L278.833 28.2673" stroke="#EEEEEE" stroke-width="5.00433" stroke-linecap="round" stroke-linejoin="round"/>
<path d="M273.534 16.3345L268.534 21.3345" stroke="#EEEEEE" stroke-width="5" stroke-linecap="round" stroke-linejoin="round"/>
<path d="M284.178 26.9741L299.052 12.1007C301.638 9.51405 305.845 9.52738 308.448 12.1307L310.835 14.5174C313.438 17.1207 313.452 21.3274 310.865 23.9141L295.992 38.7874" stroke="#EEEEEE" stroke-width="5" stroke-linecap="round" stroke-linejoin="round"/>
<path d="M269.971 41.1782L256.538 54.6116C256.118 55.0316 255.818 55.5582 255.668 56.1349L253.195 65.7049C252.555 68.1782 254.808 70.4282 257.281 69.7816L266.831 67.2916C267.405 67.1416 267.928 66.8416 268.348 66.4216L281.785 52.9849" stroke="#EEEEEE" stroke-width="5" stroke-linecap="round" stroke-linejoin="round"/>
<path d="M293.397 17.7671L305.197 29.5671" stroke="#EEEEEE" stroke-width="5" stroke-linecap="round" stroke-linejoin="round"/>
</g>
<g clip-path="url(#clip1_10_403)">
<path d="M508.247 22.5C507.557 22.4967 507 21.9367 507 21.2467C507 20.5567 507.56 20 508.25 20C508.94 20 509.5 20.56 509.5 21.25C509.5 21.94 508.94 22.5 508.247 22.5Z" stroke="#EEEEEE" stroke-width="5" stroke-linecap="round" stroke-linejoin="round"/>
<path d="M508.667 10C502.223 10 497 15.2233 497 21.6667V63.3333C497 67.0167 499.983 70 503.667 70H513.667C517.35 70 520.333 67.0167 520.333 63.3333V21.6667C520.333 15.2233 515.11 10 508.667 10Z" stroke="#EEEEEE" stroke-width="5" stroke-linecap="round" stroke-linejoin="round"/>
<path d="M516.915 13.4157L549.285 45.7857C551.889 48.389 551.889 52.609 549.285 55.2124L542.215 62.2824C539.612 64.8857 535.392 64.8857 532.789 62.2824L520.332 49.8324" stroke="#EEEEEE" stroke-width="5" stroke-linecap="round" stroke-linejoin="round"/>
<path d="M536.833 33.3335H550.333C554.017 33.3335 557 30.3502 557 26.6668V16.6668C557 12.9835 554.017 10.0002 550.333 10.0002H508.667" stroke="#EEEEEE" stroke-width="5" stroke-linecap="round" stroke-linejoin="round"/>
</g>
<g clip-path="url(#clip2_10_403)">
<path d="M749.831 43.3335H772.831" stroke="#EEEEEE" stroke-width="5" stroke-linecap="round" stroke-linejoin="round"/>
<path d="M750 53.3335H762.967" stroke="#EEEEEE" stroke-width="5" stroke-linecap="round" stroke-linejoin="round"/>
<path d="M762.977 70H746.567C742.94 70 740 67.0167 740 63.3333V16.6667C740 12.9833 742.94 10 746.567 10H780.1C783.727 10 786.667 12.9833 786.667 16.6667V36.6667" stroke="#EEEEEE" stroke-width="5" stroke-linecap="round" stroke-linejoin="round"/>
<path d="M794.31 42.3554L773.333 63.332V69.9987H780L800.977 49.022C802.28 47.7187 802.28 45.6087 800.977 44.3087L799.023 42.3554C797.723 41.0554 795.61 41.0554 794.31 42.3554Z" stroke="#EEEEEE" stroke-width="5" stroke-linecap="round" stroke-linejoin="round"/>
<path d="M755 30H750V20H755C757.76 20 760 22.24 760 25C760 27.76 757.76 30 755 30Z" stroke="#EEEEEE" stroke-width="5" stroke-linecap="round" stroke-linejoin="round"/>
</g>
<g clip-path="url(#clip3_10_403)">
<path d="M1007.33 6.6665H1020.67" stroke="#EEEEEE" stroke-width="5" stroke-linecap="round" stroke-linejoin="round"/>
<path d="M1004 33.3335L1014 43.3335" stroke="#EEEEEE" stroke-width="5" stroke-linecap="round" stroke-linejoin="round"/>
<path d="M1040.67 16.6665L1032.87 24.4665" stroke="#EEEEEE" stroke-width="5" stroke-linecap="round" stroke-linejoin="round"/>
<path d="M1037.33 13.3335L1044 20.0002" stroke="#EEEEEE" stroke-width="5" stroke-linecap="round" stroke-linejoin="round"/>
<path d="M984 50H1000.67" stroke="#EEEEEE" stroke-width="5" stroke-linecap="round" stroke-linejoin="round"/>
<path d="M1000.67 60H990.667" stroke="#EEEEEE" stroke-width="5" stroke-linecap="round" stroke-linejoin="round"/>
<path d="M1000.67 70H997.333" stroke="#EEEEEE" stroke-width="5" stroke-linecap="round" stroke-linejoin="round"/>
<path d="M988.225 36.6665C991.185 25.1732 1001.58 16.6665 1014 16.6665C1028.73 16.6665 1040.67 28.6065 1040.67 43.3332C1040.67 58.0598 1028.73 69.9998 1014 69.9998" stroke="#EEEEEE" stroke-width="5" stroke-linecap="round" stroke-linejoin="round"/>
</g>
<g clip-path="url(#clip4_10_403)">
<path d="M1243.15 63.3332H1236.85C1234.91 63.3332 1233.33 61.7565 1233.33 59.8132V35.1865C1233.33 33.2432 1234.91 31.6665 1236.85 31.6665H1243.15C1245.09 31.6665 1246.67 33.2432 1246.67 35.1865V59.8132C1246.67 61.7565 1245.09 63.3332 1243.15 63.3332V63.3332Z" stroke="#EEEEEE" stroke-width="5" stroke-linecap="round" stroke-linejoin="round"/>
<path d="M1246.67 35.2387L1258.83 19.4021C1261.09 16.4521 1265.51 16.3788 1267.88 19.2488C1268.76 20.3188 1269.24 21.6654 1269.24 23.0521V33.9554H1279.56C1281.56 33.9554 1283.43 34.9554 1284.55 36.6187L1285.64 38.2554C1286.63 39.7254 1286.91 41.5554 1286.42 43.2521L1281.89 58.9921C1281.15 61.5621 1278.8 63.3321 1276.13 63.3321H1255.17C1253.5 63.3321 1251.91 62.6388 1250.77 61.4188L1246.67 56.9988" stroke="#EEEEEE" stroke-width="5" stroke-linecap="round" stroke-linejoin="round"/>
</g>
<g clip-path="url(#clip5_10_403)">
<path d="M33.4925 46.2297C29.5925 42.3297 26.6525 37.9631 24.6992 33.5331C24.2858 32.5964 24.5292 31.4997 25.2525 30.7764L27.9825 28.0464C30.2192 25.8097 30.2192 22.6464 28.2658 20.6931L24.3525 16.7831C21.7492 14.1797 17.5292 14.1797 14.9258 16.7831L12.7525 18.9531C10.2825 21.4231 9.25249 24.9864 9.91916 28.5197C11.5658 37.2297 16.6258 46.7664 24.7892 54.9297C32.9525 63.0931 42.4892 68.1531 51.1992 69.7997C54.7325 70.4664 58.2958 69.4364 60.7658 66.9664L62.9358 64.7964C65.5392 62.1931 65.5392 57.9731 62.9358 55.3697L59.0258 51.4597C57.0725 49.5064 53.9058 49.5064 51.9558 51.4597L48.9458 54.4731C48.2225 55.1964 47.1258 55.4397 46.1892 55.0264C41.7592 53.0697 37.3925 50.1264 33.4925 46.2297V46.2297Z" stroke="#EEEEEE" stroke-width="5" stroke-linecap="round" stroke-linejoin="round"/>
<path d="M43.067 17.2336V9.43359" stroke="#EEEEEE" stroke-width="5" stroke-linecap="round" stroke-linejoin="round"/>
<path d="M56.9668 22.7323L62.4668 17.2656" stroke="#EEEEEE" stroke-width="5" stroke-linecap="round" stroke-linejoin="round"/>
<path d="M62.5006 36.6665H70.2673" stroke="#EEEEEE" stroke-width="5" stroke-linecap="round" stroke-linejoin="round"/>
</g>
<mask id="mask0_10_403" style="mask-type:alpha" maskUnits="userSpaceOnUse" x="0" y="43" width="1265" height="81">
<path fill-rule="evenodd" clip-rule="evenodd" d="M25 109.74C25 115.815 20.0751 120.74 14 120.74C7.92487 120.74 3 115.815 3 109.74C3 103.665 7.92487 98.7402 14 98.7402C20.0751 98.7402 25 103.665 25 109.74ZM28 109.74C28 117.472 21.732 123.74 14 123.74C6.26801 123.74 0 117.472 0 109.74C0 102.008 6.26801 95.7402 14 95.7402C21.732 95.7402 28 102.008 28 109.74ZM268 109.74C268 115.815 263.075 120.74 257 120.74C250.925 120.74 246 115.815 246 109.74C246 103.665 250.925 98.7402 257 98.7402C263.075 98.7402 268 103.665 268 109.74ZM271 109.74C271 117.472 264.732 123.74 257 123.74C249.268 123.74 243 117.472 243 109.74C243 102.008 249.268 95.7402 257 95.7402C264.732 95.7402 271 102.008 271 109.74ZM501.002 120.74C507.077 120.74 512.002 115.815 512.002 109.74C512.002 103.665 507.077 98.7402 501.002 98.7402C494.927 98.7402 490.002 103.665 490.002 109.74C490.002 115.815 494.927 120.74 501.002 120.74ZM501.002 123.74C508.734 123.74 515.002 117.472 515.002 109.74C515.002 102.008 508.734 95.7402 501.002 95.7402C493.27 95.7402 487.002 102.008 487.002 109.74C487.002 117.472 493.27 123.74 501.002 123.74ZM756.191 109.74C756.191 115.815 751.267 120.74 745.191 120.74C739.116 120.74 734.191 115.815 734.191 109.74C734.191 103.665 739.116 98.7402 745.191 98.7402C751.267 98.7402 756.191 103.665 756.191 109.74ZM759.191 109.74C759.191 117.472 752.923 123.74 745.191 123.74C737.459 123.74 731.191 117.472 731.191 109.74C731.191 102.008 737.459 95.7402 745.191 95.7402C752.923 95.7402 759.191 102.008 759.191 109.74ZM989.192 120.74C995.268 120.74 1000.19 115.815 1000.19 109.74C1000.19 103.665 995.268 98.7402 989.192 98.7402C983.117 98.7402 978.192 103.665 978.192 109.74C978.192 115.815 983.117 120.74 989.192 120.74ZM989.192 123.74C996.924 123.74 1003.19 117.472 1003.19 109.74C1003.19 102.008 996.924 95.7402 989.192 95.7402C981.46 95.7402 975.192 102.008 975.192 109.74C975.192 117.472 981.46 123.74 989.192 123.74ZM1244.38 109.74C1244.38 115.815 1239.46 120.74 1233.38 120.74C1227.31 120.74 1222.38 115.815 1222.38 109.74C1222.38 103.665 1227.31 98.7402 1233.38 98.7402C1239.46 98.7402 1244.38 103.665 1244.38 109.74ZM1247.38 109.74C1247.38 117.472 1241.11 123.74 1233.38 123.74C1225.65 123.74 1219.38 117.472 1219.38 109.74C1219.38 102.008 1225.65 95.7402 1233.38 95.7402C1241.11 95.7402 1247.38 102.008 1247.38 109.74Z" fill="#64C627"/>
<path d="M8.78405 62.116C9.86405 63.532 11.136 64.24 12.6 64.24C14.064 64.24 15.324 63.532 16.38 62.116C17.46 60.676 18 58.684 18 56.14C18 53.596 17.46 51.616 16.38 50.2C15.324 48.76 14.064 48.04 12.6 48.04C11.136 48.04 9.86405 48.76 8.78405 50.2C7.72805 51.616 7.20005 53.596 7.20005 56.14C7.20005 58.684 7.72805 60.676 8.78405 62.116ZM20.2321 65.68C18.1441 68.08 15.6 69.28 12.6 69.28C9.60005 69.28 7.04405 68.08 4.93205 65.68C2.84405 63.256 1.80005 60.076 1.80005 56.14C1.80005 52.204 2.84405 49.036 4.93205 46.636C7.04405 44.212 9.60005 43 12.6 43C15.6 43 18.1441 44.212 20.2321 46.636C22.3441 49.036 23.4001 52.204 23.4001 56.14C23.4001 60.076 22.3441 63.256 20.2321 65.68Z" fill="#64C627"/>
<path d="M30.6071 68.74V50.38H26.2871V46.96C27.9671 46.744 29.3351 46.108 30.3911 45.052C30.8231 44.62 31.1951 44.116 31.5071 43.54H36.0071V68.74H30.6071Z" fill="#64C627"/>
<path d="M251.784 62.116C252.864 63.532 254.136 64.24 255.6 64.24C257.064 64.24 258.324 63.532 259.38 62.116C260.46 60.676 261 58.684 261 56.14C261 53.596 260.46 51.616 259.38 50.2C258.324 48.76 257.064 48.04 255.6 48.04C254.136 48.04 252.864 48.76 251.784 50.2C250.728 51.616 250.2 53.596 250.2 56.14C250.2 58.684 250.728 60.676 251.784 62.116ZM263.232 65.68C261.144 68.08 258.6 69.28 255.6 69.28C252.6 69.28 250.044 68.08 247.932 65.68C245.844 63.256 244.8 60.076 244.8 56.14C244.8 52.204 245.844 49.036 247.932 46.636C250.044 44.212 252.6 43 255.6 43C258.6 43 261.144 44.212 263.232 46.636C265.344 49.036 266.4 52.204 266.4 56.14C266.4 60.076 265.344 63.256 263.232 65.68Z" fill="#64C627"/>
<path d="M276.307 63.7H287.107V68.74H269.287C269.287 67.132 269.515 65.668 269.971 64.348C270.427 63.028 271.003 61.936 271.699 61.072C272.419 60.184 273.211 59.38 274.075 58.66C274.963 57.94 275.839 57.304 276.703 56.752C277.591 56.176 278.383 55.636 279.079 55.132C279.799 54.604 280.387 54.016 280.843 53.368C281.299 52.72 281.527 52.024 281.527 51.28C281.527 50.344 281.191 49.576 280.519 48.976C279.847 48.352 278.983 48.04 277.927 48.04C276.655 48.04 275.551 48.556 274.615 49.588C274.183 50.068 273.847 50.572 273.607 51.1L269.287 48.94C269.767 47.812 270.391 46.828 271.159 45.988C273.007 43.996 275.383 43 278.287 43C280.927 43 283.051 43.756 284.659 45.268C286.291 46.756 287.107 48.64 287.107 50.92C287.107 52.264 286.831 53.476 286.279 54.556C285.727 55.612 285.007 56.512 284.119 57.256C283.231 58 282.319 58.684 281.383 59.308C280.447 59.932 279.487 60.628 278.503 61.396C277.543 62.14 276.811 62.908 276.307 63.7Z" fill="#64C627"/>
<path d="M495.784 62.116C496.864 63.532 498.136 64.24 499.6 64.24C501.064 64.24 502.324 63.532 503.38 62.116C504.46 60.676 505 58.684 505 56.14C505 53.596 504.46 51.616 503.38 50.2C502.324 48.76 501.064 48.04 499.6 48.04C498.136 48.04 496.864 48.76 495.784 50.2C494.728 51.616 494.2 53.596 494.2 56.14C494.2 58.684 494.728 60.676 495.784 62.116ZM507.232 65.68C505.144 68.08 502.6 69.28 499.6 69.28C496.6 69.28 494.044 68.08 491.932 65.68C489.844 63.256 488.8 60.076 488.8 56.14C488.8 52.204 489.844 49.036 491.932 46.636C494.044 44.212 496.6 43 499.6 43C502.6 43 505.144 44.212 507.232 46.636C509.344 49.036 510.4 52.204 510.4 56.14C510.4 60.076 509.344 63.256 507.232 65.68Z" fill="#64C627"/>
<path d="M511.477 65.32L515.077 61.72C515.509 62.224 516.001 62.68 516.553 63.088C517.825 63.976 519.133 64.42 520.477 64.42C521.845 64.42 522.901 64.132 523.645 63.556C524.413 62.956 524.797 62.224 524.797 61.36C524.797 60.496 524.437 59.776 523.717 59.2C523.021 58.6 522.061 58.3 520.837 58.3H517.957V53.62H520.477C521.533 53.62 522.361 53.356 522.961 52.828C523.585 52.276 523.897 51.58 523.897 50.74C523.897 49.9 523.585 49.216 522.961 48.688C522.361 48.136 521.533 47.86 520.477 47.86C519.421 47.86 518.329 48.28 517.201 49.12C516.721 49.528 516.313 49.948 515.977 50.38L512.377 46.78C513.049 46.036 513.769 45.412 514.537 44.908C516.433 43.636 518.593 43 521.017 43C523.465 43 525.481 43.708 527.065 45.124C528.673 46.516 529.477 48.148 529.477 50.02C529.477 51.724 528.817 53.14 527.497 54.268C526.849 54.772 526.189 55.156 525.517 55.42C526.429 55.756 527.233 56.2 527.929 56.752C529.561 58 530.377 59.656 530.377 61.72C530.377 63.76 529.513 65.536 527.785 67.048C526.057 68.536 523.801 69.28 521.017 69.28C518.329 69.28 515.953 68.62 513.889 67.3C512.953 66.724 512.149 66.064 511.477 65.32Z" fill="#64C627"/>
<path d="M739.784 62.116C740.864 63.532 742.136 64.24 743.6 64.24C745.064 64.24 746.324 63.532 747.38 62.116C748.46 60.676 749 58.684 749 56.14C749 53.596 748.46 51.616 747.38 50.2C746.324 48.76 745.064 48.04 743.6 48.04C742.136 48.04 740.864 48.76 739.784 50.2C738.728 51.616 738.2 53.596 738.2 56.14C738.2 58.684 738.728 60.676 739.784 62.116ZM751.232 65.68C749.144 68.08 746.6 69.28 743.6 69.28C740.6 69.28 738.044 68.08 735.932 65.68C733.844 63.256 732.8 60.076 732.8 56.14C732.8 52.204 733.844 49.036 735.932 46.636C738.044 44.212 740.6 43 743.6 43C746.6 43 749.144 44.212 751.232 46.636C753.344 49.036 754.4 52.204 754.4 56.14C754.4 60.076 753.344 63.256 751.232 65.68Z" fill="#64C627"/>
<path d="M756.747 64.24V58.48L767.727 43.54H774.027V59.2H776.907V64.24H774.027V68.74H768.627V64.24H756.747ZM762.327 59.2H768.627V50.56L762.327 59.2Z" fill="#64C627"/>
<path d="M983.784 62.116C984.864 63.532 986.136 64.24 987.6 64.24C989.064 64.24 990.324 63.532 991.38 62.116C992.46 60.676 993 58.684 993 56.14C993 53.596 992.46 51.616 991.38 50.2C990.324 48.76 989.064 48.04 987.6 48.04C986.136 48.04 984.864 48.76 983.784 50.2C982.728 51.616 982.2 53.596 982.2 56.14C982.2 58.684 982.728 60.676 983.784 62.116ZM995.232 65.68C993.144 68.08 990.6 69.28 987.6 69.28C984.6 69.28 982.044 68.08 979.932 65.68C977.844 63.256 976.8 60.076 976.8 56.14C976.8 52.204 977.844 49.036 979.932 46.636C982.044 44.212 984.6 43 987.6 43C990.6 43 993.144 44.212 995.232 46.636C997.344 49.036 998.4 52.204 998.4 56.14C998.4 60.076 997.344 63.256 995.232 65.68Z" fill="#64C627"/>
<path d="M1001.47 65.32L1005.07 61.72C1005.5 62.224 1005.99 62.68 1006.54 63.088C1007.82 63.976 1009.12 64.42 1010.47 64.42C1011.88 64.42 1012.99 64.072 1013.78 63.376C1014.57 62.656 1014.97 61.744 1014.97 60.64C1014.97 59.536 1014.58 58.636 1013.82 57.94C1013.05 57.22 1011.99 56.86 1010.65 56.86C1009.42 56.86 1008.39 57.196 1007.55 57.868C1007.12 58.18 1006.77 58.504 1006.51 58.84L1002.73 58.3L1003.63 43.54H1018.93V48.58H1008.31L1008.13 53.08C1008.37 52.912 1008.69 52.768 1009.1 52.648C1009.87 52.336 1010.74 52.18 1011.73 52.18C1014.32 52.18 1016.43 52.972 1018.06 54.556C1019.72 56.14 1020.55 58.168 1020.55 60.64C1020.55 63.112 1019.66 65.176 1017.88 66.832C1016.13 68.464 1013.84 69.28 1011.01 69.28C1008.32 69.28 1005.94 68.62 1003.88 67.3C1002.94 66.724 1002.14 66.064 1001.47 65.32Z" fill="#64C627"/>
<path d="M1227.78 62.116C1228.86 63.532 1230.14 64.24 1231.6 64.24C1233.06 64.24 1234.32 63.532 1235.38 62.116C1236.46 60.676 1237 58.684 1237 56.14C1237 53.596 1236.46 51.616 1235.38 50.2C1234.32 48.76 1233.06 48.04 1231.6 48.04C1230.14 48.04 1228.86 48.76 1227.78 50.2C1226.73 51.616 1226.2 53.596 1226.2 56.14C1226.2 58.684 1226.73 60.676 1227.78 62.116ZM1239.23 65.68C1237.14 68.08 1234.6 69.28 1231.6 69.28C1228.6 69.28 1226.04 68.08 1223.93 65.68C1221.84 63.256 1220.8 60.076 1220.8 56.14C1220.8 52.204 1221.84 49.036 1223.93 46.636C1226.04 44.212 1228.6 43 1231.6 43C1234.6 43 1237.14 44.212 1239.23 46.636C1241.34 49.036 1242.4 52.204 1242.4 56.14C1242.4 60.076 1241.34 63.256 1239.23 65.68Z" fill="#64C627"/>
<path d="M1247.81 54.34L1254.83 43.54H1260.41L1255.01 51.82L1255.37 51.748C1255.87 51.676 1256.17 51.64 1256.27 51.64C1258.55 51.64 1260.53 52.516 1262.21 54.268C1263.89 55.996 1264.73 58.06 1264.73 60.46C1264.73 62.932 1263.83 65.02 1262.03 66.724C1260.23 68.428 1257.95 69.28 1255.19 69.28C1252.43 69.28 1250.15 68.428 1248.35 66.724C1246.55 65.02 1245.65 62.932 1245.65 60.46C1245.65 59.044 1246.01 57.592 1246.73 56.104C1247.04 55.504 1247.4 54.916 1247.81 54.34ZM1252.31 63.34C1253.05 64.06 1254.01 64.42 1255.19 64.42C1256.36 64.42 1257.31 64.06 1258.03 63.34C1258.78 62.596 1259.15 61.636 1259.15 60.46C1259.15 59.284 1258.78 58.336 1258.03 57.616C1257.31 56.872 1256.36 56.5 1255.19 56.5C1254.01 56.5 1253.05 56.872 1252.31 57.616C1251.59 58.336 1251.23 59.284 1251.23 60.46C1251.23 61.636 1251.59 62.596 1252.31 63.34Z" fill="#64C627"/>
<line x1="28" y1="109.24" x2="243" y2="109.24" stroke="#479DCB" stroke-width="3"/>
<line x1="269" y1="109.24" x2="487" y2="109.24" stroke="#479DCB" stroke-width="3"/>
<line x1="514" y1="109.24" x2="732" y2="109.24" stroke="#479DCB" stroke-width="3"/>
<line x1="758" y1="109.24" x2="976" y2="109.24" stroke="#479DCB" stroke-width="3"/>
<line x1="1002" y1="109.24" x2="1220" y2="109.24" stroke="#479DCB" stroke-width="3"/>
</mask>
<g mask="url(#mask0_10_403)">
<rect x="-1" y="35.7402" width="1266" height="100" fill="url(#paint0_linear_10_403)"/>
</g>
<defs>
<linearGradient id="paint0_linear_10_403" x1="1265" y1="93.2402" x2="-0.999992" y2="95.7401" gradientUnits="userSpaceOnUse">
<stop stop-color="#64C627"/>
<stop offset="1" stop-color="#CACACA"/>
</linearGradient>
<clipPath id="clip0_10_403">
<rect width="80" height="80" fill="white" transform="translate(243)"/>
</clipPath>
<clipPath id="clip1_10_403">
<rect width="80" height="80" fill="white" transform="matrix(1 0 0 -1 487 80)"/>
</clipPath>
<clipPath id="clip2_10_403">
<rect width="80" height="80" fill="white" transform="translate(730)"/>
</clipPath>
<clipPath id="clip3_10_403">
<rect width="80" height="80" fill="white" transform="translate(974)"/>
</clipPath>
<clipPath id="clip4_10_403">
<rect width="80" height="80" fill="white" transform="translate(1220)"/>
</clipPath>
<clipPath id="clip5_10_403">
<rect width="80" height="80" fill="white"/>
</clipPath>
</defs>
</svg>
