<svg width="134" height="836" viewBox="0 0 134 836" fill="none" xmlns="http://www.w3.org/2000/svg">
<g clip-path="url(#clip0_13_1767)">
<path d="M23.1467 819.333H16.8533C14.91 819.333 13.3333 817.757 13.3333 815.813V791.187C13.3333 789.243 14.91 787.667 16.8533 787.667H23.1467C25.09 787.667 26.6667 789.243 26.6667 791.187V815.813C26.6667 817.757 25.09 819.333 23.1467 819.333V819.333Z" stroke="#EEEEEE" stroke-width="5" stroke-linecap="round" stroke-linejoin="round"/>
<path d="M26.6667 791.239L38.83 775.402C41.0933 772.452 45.5133 772.379 47.8767 775.249C48.76 776.319 49.24 777.665 49.24 779.052V789.955H59.56C61.5633 789.955 63.4333 790.955 64.5467 792.619L65.6433 794.255C66.6267 795.725 66.9133 797.555 66.4233 799.252L61.8933 814.992C61.1533 817.562 58.8033 819.332 56.13 819.332H35.1667C33.5 819.332 31.9067 818.639 30.7733 817.419L26.6667 812.999" stroke="#EEEEEE" stroke-width="5" stroke-linecap="round" stroke-linejoin="round"/>
</g>
<g clip-path="url(#clip1_13_1767)">
<path d="M33.3333 612.667H46.6667" stroke="#EEEEEE" stroke-width="5" stroke-linecap="round" stroke-linejoin="round"/>
<path d="M30 639.333L40 649.333" stroke="#EEEEEE" stroke-width="5" stroke-linecap="round" stroke-linejoin="round"/>
<path d="M66.6672 622.667L58.8672 630.467" stroke="#EEEEEE" stroke-width="5" stroke-linecap="round" stroke-linejoin="round"/>
<path d="M63.3333 619.333L70 626" stroke="#EEEEEE" stroke-width="5" stroke-linecap="round" stroke-linejoin="round"/>
<path d="M10 656H26.6667" stroke="#EEEEEE" stroke-width="5" stroke-linecap="round" stroke-linejoin="round"/>
<path d="M26.6667 666H16.6667" stroke="#EEEEEE" stroke-width="5" stroke-linecap="round" stroke-linejoin="round"/>
<path d="M26.6667 676H23.3333" stroke="#EEEEEE" stroke-width="5" stroke-linecap="round" stroke-linejoin="round"/>
<path d="M14.2253 642.667C17.1853 631.173 27.5786 622.667 39.9986 622.667C54.7253 622.667 66.6653 634.607 66.6653 649.333C66.6653 664.06 54.7253 676 39.9986 676" stroke="#EEEEEE" stroke-width="5" stroke-linecap="round" stroke-linejoin="round"/>
</g>
<g clip-path="url(#clip2_13_1767)">
<path d="M19.8307 495.333H42.8307" stroke="#EEEEEE" stroke-width="5" stroke-linecap="round" stroke-linejoin="round"/>
<path d="M20 505.333H32.9667" stroke="#EEEEEE" stroke-width="5" stroke-linecap="round" stroke-linejoin="round"/>
<path d="M32.9767 522H16.5667C12.94 522 10 519.017 10 515.333V468.667C10 464.983 12.94 462 16.5667 462H50.1C53.7267 462 56.6667 464.983 56.6667 468.667V488.667" stroke="#EEEEEE" stroke-width="5" stroke-linecap="round" stroke-linejoin="round"/>
<path d="M64.31 494.355L43.3333 515.332V521.999H50L70.9767 501.022C72.28 499.719 72.28 497.609 70.9767 496.309L69.0233 494.355C67.7233 493.055 65.61 493.055 64.31 494.355Z" stroke="#EEEEEE" stroke-width="5" stroke-linecap="round" stroke-linejoin="round"/>
<path d="M25 482H20V472H25C27.76 472 30 474.24 30 477C30 479.76 27.76 482 25 482Z" stroke="#EEEEEE" stroke-width="5" stroke-linecap="round" stroke-linejoin="round"/>
</g>
<g clip-path="url(#clip3_13_1767)">
<path d="M21.2467 323.5C20.5567 323.497 20 322.937 20 322.247C20 321.557 20.56 321 21.25 321C21.94 321 22.5 321.56 22.5 322.25C22.5 322.94 21.94 323.5 21.2467 323.5Z" stroke="#EEEEEE" stroke-width="5" stroke-linecap="round" stroke-linejoin="round"/>
<path d="M21.6667 311C15.2233 311 10 316.223 10 322.667V364.333C10 368.017 12.9833 371 16.6667 371H26.6667C30.35 371 33.3333 368.017 33.3333 364.333V322.667C33.3333 316.223 28.11 311 21.6667 311Z" stroke="#EEEEEE" stroke-width="5" stroke-linecap="round" stroke-linejoin="round"/>
<path d="M29.9154 314.416L62.2854 346.786C64.8887 349.389 64.8887 353.609 62.2854 356.212L55.2154 363.282C52.612 365.886 48.392 365.886 45.7887 363.282L33.332 350.832" stroke="#EEEEEE" stroke-width="5" stroke-linecap="round" stroke-linejoin="round"/>
<path d="M49.8333 334.333H63.3333C67.0167 334.333 70 331.35 70 327.667V317.667C70 313.983 67.0167 311 63.3333 311H21.6667" stroke="#EEEEEE" stroke-width="5" stroke-linecap="round" stroke-linejoin="round"/>
</g>
<g clip-path="url(#clip4_13_1767)">
<path d="M10.9775 176.472L20.4708 166.978C21.7708 165.678 23.8808 165.678 25.1842 166.978L69.0242 210.818C70.3242 212.118 70.3242 214.228 69.0242 215.532L59.5308 225.025C58.2308 226.325 56.1208 226.325 54.8175 225.025L10.9775 181.185C9.67417 179.882 9.67417 177.772 10.9775 176.472V176.472Z" stroke="#EEEEEE" stroke-width="5" stroke-linecap="round" stroke-linejoin="round"/>
<path d="M47.1029 188.9L42.1029 193.9" stroke="#EEEEEE" stroke-width="5" stroke-linecap="round" stroke-linejoin="round"/>
<path d="M55.7357 197.533L52.4023 200.867" stroke="#EEEEEE" stroke-width="5.00433" stroke-linecap="round" stroke-linejoin="round"/>
<path d="M63.6654 205.466L58.6654 210.466" stroke="#EEEEEE" stroke-width="5.00433" stroke-linecap="round" stroke-linejoin="round"/>
<path d="M39.1667 180.967L35.8333 184.267" stroke="#EEEEEE" stroke-width="5.00433" stroke-linecap="round" stroke-linejoin="round"/>
<path d="M30.5338 172.334L25.5338 177.334" stroke="#EEEEEE" stroke-width="5" stroke-linecap="round" stroke-linejoin="round"/>
<path d="M41.1784 182.974L56.0517 168.101C58.6384 165.514 62.845 165.527 65.4484 168.131L67.835 170.517C70.4384 173.121 70.4517 177.327 67.865 179.914L52.9917 194.787" stroke="#EEEEEE" stroke-width="5" stroke-linecap="round" stroke-linejoin="round"/>
<path d="M26.9714 197.178L13.5381 210.612C13.1181 211.032 12.8181 211.558 12.6681 212.135L10.1947 221.705C9.55473 224.178 11.8081 226.428 14.2814 225.782L23.8314 223.292C24.4047 223.142 24.9281 222.842 25.3481 222.422L38.7847 208.985" stroke="#EEEEEE" stroke-width="5" stroke-linecap="round" stroke-linejoin="round"/>
<path d="M50.3971 173.767L62.1971 185.567" stroke="#EEEEEE" stroke-width="5" stroke-linecap="round" stroke-linejoin="round"/>
</g>
<g clip-path="url(#clip5_13_1767)">
<path d="M33.4925 46.2297C29.5925 42.3297 26.6525 37.9631 24.6992 33.5331C24.2858 32.5964 24.5292 31.4997 25.2525 30.7764L27.9825 28.0464C30.2192 25.8097 30.2192 22.6464 28.2658 20.6931L24.3525 16.7831C21.7492 14.1797 17.5292 14.1797 14.9258 16.7831L12.7525 18.9531C10.2825 21.4231 9.25249 24.9864 9.91916 28.5197C11.5658 37.2297 16.6258 46.7664 24.7892 54.9297C32.9525 63.0931 42.4892 68.1531 51.1992 69.7997C54.7325 70.4664 58.2958 69.4364 60.7658 66.9664L62.9358 64.7964C65.5392 62.1931 65.5392 57.9731 62.9358 55.3697L59.0258 51.4597C57.0725 49.5064 53.9058 49.5064 51.9558 51.4597L48.9458 54.4731C48.2225 55.1964 47.1258 55.4397 46.1892 55.0264C41.7592 53.0697 37.3925 50.1264 33.4925 46.2297V46.2297Z" stroke="#EEEEEE" stroke-width="5" stroke-linecap="round" stroke-linejoin="round"/>
<path d="M43.067 17.2336V9.43359" stroke="#EEEEEE" stroke-width="5" stroke-linecap="round" stroke-linejoin="round"/>
<path d="M56.9668 22.7323L62.4668 17.2656" stroke="#EEEEEE" stroke-width="5" stroke-linecap="round" stroke-linejoin="round"/>
<path d="M62.5006 36.6665H70.2673" stroke="#EEEEEE" stroke-width="5" stroke-linecap="round" stroke-linejoin="round"/>
</g>
<mask id="mask0_13_1767" style="mask-type:alpha" maskUnits="userSpaceOnUse" x="33" y="26" width="101" height="785">
<path d="M49.984 46.116C51.064 47.532 52.336 48.24 53.8 48.24C55.264 48.24 56.524 47.532 57.58 46.116C58.66 44.676 59.2 42.684 59.2 40.14C59.2 37.596 58.66 35.616 57.58 34.2C56.524 32.76 55.264 32.04 53.8 32.04C52.336 32.04 51.064 32.76 49.984 34.2C48.928 35.616 48.4 37.596 48.4 40.14C48.4 42.684 48.928 44.676 49.984 46.116ZM61.432 49.68C59.344 52.08 56.8 53.28 53.8 53.28C50.8 53.28 48.244 52.08 46.132 49.68C44.044 47.256 43 44.076 43 40.14C43 36.204 44.044 33.036 46.132 30.636C48.244 28.212 50.8 27 53.8 27C56.8 27 59.344 28.212 61.432 30.636C63.544 33.036 64.6 36.204 64.6 40.14C64.6 44.076 63.544 47.256 61.432 49.68Z" fill="#64C627"/>
<path d="M71.807 52.74V34.38H67.487V30.96C69.167 30.744 70.535 30.108 71.591 29.052C72.023 28.62 72.395 28.116 72.707 27.54H77.207V52.74H71.807Z" fill="#64C627"/>
<path d="M41.984 198.116C43.064 199.532 44.336 200.24 45.8 200.24C47.264 200.24 48.524 199.532 49.58 198.116C50.66 196.676 51.2 194.684 51.2 192.14C51.2 189.596 50.66 187.616 49.58 186.2C48.524 184.76 47.264 184.04 45.8 184.04C44.336 184.04 43.064 184.76 41.984 186.2C40.928 187.616 40.4 189.596 40.4 192.14C40.4 194.684 40.928 196.676 41.984 198.116ZM53.432 201.68C51.344 204.08 48.8 205.28 45.8 205.28C42.8 205.28 40.244 204.08 38.132 201.68C36.044 199.256 35 196.076 35 192.14C35 188.204 36.044 185.036 38.132 182.636C40.244 180.212 42.8 179 45.8 179C48.8 179 51.344 180.212 53.432 182.636C55.544 185.036 56.6 188.204 56.6 192.14C56.6 196.076 55.544 199.256 53.432 201.68Z" fill="#64C627"/>
<path d="M66.507 199.7H77.307V204.74H59.487C59.487 203.132 59.715 201.668 60.171 200.348C60.627 199.028 61.203 197.936 61.899 197.072C62.619 196.184 63.411 195.38 64.275 194.66C65.163 193.94 66.039 193.304 66.903 192.752C67.791 192.176 68.583 191.636 69.279 191.132C69.999 190.604 70.587 190.016 71.043 189.368C71.499 188.72 71.727 188.024 71.727 187.28C71.727 186.344 71.391 185.576 70.719 184.976C70.047 184.352 69.183 184.04 68.127 184.04C66.855 184.04 65.751 184.556 64.815 185.588C64.383 186.068 64.047 186.572 63.807 187.1L59.487 184.94C59.967 183.812 60.591 182.828 61.359 181.988C63.207 179.996 65.583 179 68.487 179C71.127 179 73.251 179.756 74.859 181.268C76.491 182.756 77.307 184.64 77.307 186.92C77.307 188.264 77.031 189.476 76.479 190.556C75.927 191.612 75.207 192.512 74.319 193.256C73.431 194 72.519 194.684 71.583 195.308C70.647 195.932 69.687 196.628 68.703 197.396C67.743 198.14 67.011 198.908 66.507 199.7Z" fill="#64C627"/>
<path d="M41.984 347.116C43.064 348.532 44.336 349.24 45.8 349.24C47.264 349.24 48.524 348.532 49.58 347.116C50.66 345.676 51.2 343.684 51.2 341.14C51.2 338.596 50.66 336.616 49.58 335.2C48.524 333.76 47.264 333.04 45.8 333.04C44.336 333.04 43.064 333.76 41.984 335.2C40.928 336.616 40.4 338.596 40.4 341.14C40.4 343.684 40.928 345.676 41.984 347.116ZM53.432 350.68C51.344 353.08 48.8 354.28 45.8 354.28C42.8 354.28 40.244 353.08 38.132 350.68C36.044 348.256 35 345.076 35 341.14C35 337.204 36.044 334.036 38.132 331.636C40.244 329.212 42.8 328 45.8 328C48.8 328 51.344 329.212 53.432 331.636C55.544 334.036 56.6 337.204 56.6 341.14C56.6 345.076 55.544 348.256 53.432 350.68Z" fill="#64C627"/>
<path d="M57.6772 350.32L61.2772 346.72C61.7092 347.224 62.2012 347.68 62.7532 348.088C64.0252 348.976 65.3332 349.42 66.6772 349.42C68.0452 349.42 69.1012 349.132 69.8452 348.556C70.6132 347.956 70.9972 347.224 70.9972 346.36C70.9972 345.496 70.6372 344.776 69.9172 344.2C69.2212 343.6 68.2612 343.3 67.0372 343.3H64.1572V338.62H66.6772C67.7332 338.62 68.5612 338.356 69.1612 337.828C69.7852 337.276 70.0972 336.58 70.0972 335.74C70.0972 334.9 69.7852 334.216 69.1612 333.688C68.5612 333.136 67.7332 332.86 66.6772 332.86C65.6212 332.86 64.5292 333.28 63.4012 334.12C62.9212 334.528 62.5132 334.948 62.1772 335.38L58.5772 331.78C59.2492 331.036 59.9692 330.412 60.7372 329.908C62.6332 328.636 64.7932 328 67.2172 328C69.6652 328 71.6812 328.708 73.2652 330.124C74.8732 331.516 75.6772 333.148 75.6772 335.02C75.6772 336.724 75.0172 338.14 73.6972 339.268C73.0492 339.772 72.3892 340.156 71.7172 340.42C72.6292 340.756 73.4332 341.2 74.1292 341.752C75.7612 343 76.5772 344.656 76.5772 346.72C76.5772 348.76 75.7132 350.536 73.9852 352.048C72.2572 353.536 70.0012 354.28 67.2172 354.28C64.5292 354.28 62.1532 353.62 60.0892 352.3C59.1532 351.724 58.3492 351.064 57.6772 350.32Z" fill="#64C627"/>
<path d="M39.984 499.116C41.064 500.532 42.336 501.24 43.8 501.24C45.264 501.24 46.524 500.532 47.58 499.116C48.66 497.676 49.2 495.684 49.2 493.14C49.2 490.596 48.66 488.616 47.58 487.2C46.524 485.76 45.264 485.04 43.8 485.04C42.336 485.04 41.064 485.76 39.984 487.2C38.928 488.616 38.4 490.596 38.4 493.14C38.4 495.684 38.928 497.676 39.984 499.116ZM51.432 502.68C49.344 505.08 46.8 506.28 43.8 506.28C40.8 506.28 38.244 505.08 36.132 502.68C34.044 500.256 33 497.076 33 493.14C33 489.204 34.044 486.036 36.132 483.636C38.244 481.212 40.8 480 43.8 480C46.8 480 49.344 481.212 51.432 483.636C53.544 486.036 54.6 489.204 54.6 493.14C54.6 497.076 53.544 500.256 51.432 502.68Z" fill="#64C627"/>
<path d="M56.947 501.24V495.48L67.927 480.54H74.227V496.2H77.107V501.24H74.227V505.74H68.827V501.24H56.947ZM62.527 496.2H68.827V487.56L62.527 496.2Z" fill="#64C627"/>
<path d="M39.984 652.116C41.064 653.532 42.336 654.24 43.8 654.24C45.264 654.24 46.524 653.532 47.58 652.116C48.66 650.676 49.2 648.684 49.2 646.14C49.2 643.596 48.66 641.616 47.58 640.2C46.524 638.76 45.264 638.04 43.8 638.04C42.336 638.04 41.064 638.76 39.984 640.2C38.928 641.616 38.4 643.596 38.4 646.14C38.4 648.684 38.928 650.676 39.984 652.116ZM51.432 655.68C49.344 658.08 46.8 659.28 43.8 659.28C40.8 659.28 38.244 658.08 36.132 655.68C34.044 653.256 33 650.076 33 646.14C33 642.204 34.044 639.036 36.132 636.636C38.244 634.212 40.8 633 43.8 633C46.8 633 49.344 634.212 51.432 636.636C53.544 639.036 54.6 642.204 54.6 646.14C54.6 650.076 53.544 653.256 51.432 655.68Z" fill="#64C627"/>
<path d="M57.667 655.32L61.267 651.72C61.699 652.224 62.191 652.68 62.743 653.088C64.015 653.976 65.323 654.42 66.667 654.42C68.083 654.42 69.187 654.072 69.979 653.376C70.771 652.656 71.167 651.744 71.167 650.64C71.167 649.536 70.783 648.636 70.015 647.94C69.247 647.22 68.191 646.86 66.847 646.86C65.623 646.86 64.591 647.196 63.751 647.868C63.319 648.18 62.971 648.504 62.707 648.84L58.927 648.3L59.827 633.54H75.127V638.58H64.507L64.327 643.08C64.567 642.912 64.891 642.768 65.299 642.648C66.067 642.336 66.943 642.18 67.927 642.18C70.519 642.18 72.631 642.972 74.263 644.556C75.919 646.14 76.747 648.168 76.747 650.64C76.747 653.112 75.859 655.176 74.083 656.832C72.331 658.464 70.039 659.28 67.207 659.28C64.519 659.28 62.143 658.62 60.079 657.3C59.143 656.724 58.339 656.064 57.667 655.32Z" fill="#64C627"/>
<path d="M39.984 803.116C41.064 804.532 42.336 805.24 43.8 805.24C45.264 805.24 46.524 804.532 47.58 803.116C48.66 801.676 49.2 799.684 49.2 797.14C49.2 794.596 48.66 792.616 47.58 791.2C46.524 789.76 45.264 789.04 43.8 789.04C42.336 789.04 41.064 789.76 39.984 791.2C38.928 792.616 38.4 794.596 38.4 797.14C38.4 799.684 38.928 801.676 39.984 803.116ZM51.432 806.68C49.344 809.08 46.8 810.28 43.8 810.28C40.8 810.28 38.244 809.08 36.132 806.68C34.044 804.256 33 801.076 33 797.14C33 793.204 34.044 790.036 36.132 787.636C38.244 785.212 40.8 784 43.8 784C46.8 784 49.344 785.212 51.432 787.636C53.544 790.036 54.6 793.204 54.6 797.14C54.6 801.076 53.544 804.256 51.432 806.68Z" fill="#64C627"/>
<path d="M60.007 795.34L67.027 784.54H72.607L67.207 792.82L67.567 792.748C68.071 792.676 68.371 792.64 68.467 792.64C70.747 792.64 72.727 793.516 74.407 795.268C76.087 796.996 76.927 799.06 76.927 801.46C76.927 803.932 76.027 806.02 74.227 807.724C72.427 809.428 70.147 810.28 67.387 810.28C64.627 810.28 62.347 809.428 60.547 807.724C58.747 806.02 57.847 803.932 57.847 801.46C57.847 800.044 58.207 798.592 58.927 797.104C59.239 796.504 59.599 795.916 60.007 795.34ZM64.507 804.34C65.251 805.06 66.211 805.42 67.387 805.42C68.563 805.42 69.511 805.06 70.231 804.34C70.975 803.596 71.347 802.636 71.347 801.46C71.347 800.284 70.975 799.336 70.231 798.616C69.511 797.872 68.563 797.5 67.387 797.5C66.211 797.5 65.251 797.872 64.507 798.616C63.787 799.336 63.427 800.284 63.427 801.46C63.427 802.636 63.787 803.596 64.507 804.34Z" fill="#64C627"/>
<line x1="120" y1="53" x2="120" y2="179" stroke="#479DCB" stroke-width="4"/>
<circle cx="120" cy="40" r="12" stroke="#479DCB" stroke-width="4"/>
<line x1="120" y1="354" x2="120" y2="480" stroke="#479DCB" stroke-width="4"/>
<circle cx="120" cy="341" r="12" stroke="#479DCB" stroke-width="4"/>
<line x1="120" y1="658" x2="120" y2="784" stroke="#479DCB" stroke-width="4"/>
<circle cx="120" cy="645" r="12" stroke="#479DCB" stroke-width="4"/>
<line x1="120" y1="204" x2="120" y2="330" stroke="#479DCB" stroke-width="4"/>
<circle cx="120" cy="191" r="12" stroke="#479DCB" stroke-width="4"/>
<line x1="120" y1="505" x2="120" y2="631" stroke="#479DCB" stroke-width="4"/>
<circle cx="120" cy="492" r="12" stroke="#479DCB" stroke-width="4"/>
<circle cx="120" cy="796" r="12" stroke="#479DCB" stroke-width="4"/>
</mask>
<g mask="url(#mask0_13_1767)">
<rect x="138" y="1" width="832" height="110" transform="rotate(90 138 1)" fill="url(#paint0_linear_13_1767)"/>
</g>
<defs>
<linearGradient id="paint0_linear_13_1767" x1="970" y1="64.2499" x2="137.998" y2="65.2315" gradientUnits="userSpaceOnUse">
<stop stop-color="#64C627"/>
<stop offset="1" stop-color="#CACACA"/>
</linearGradient>
<clipPath id="clip0_13_1767">
<rect width="80" height="80" fill="white" transform="translate(0 756)"/>
</clipPath>
<clipPath id="clip1_13_1767">
<rect width="80" height="80" fill="white" transform="translate(0 606)"/>
</clipPath>
<clipPath id="clip2_13_1767">
<rect width="80" height="80" fill="white" transform="translate(0 452)"/>
</clipPath>
<clipPath id="clip3_13_1767">
<rect width="80" height="80" fill="white" transform="matrix(1 0 0 -1 0 381)"/>
</clipPath>
<clipPath id="clip4_13_1767">
<rect width="80" height="80" fill="white" transform="translate(0 156)"/>
</clipPath>
<clipPath id="clip5_13_1767">
<rect width="80" height="80" fill="white"/>
</clipPath>
</defs>
</svg>
